<svg width="829" height="653" viewBox="0 0 829 653" fill="none" xmlns="http://www.w3.org/2000/svg">
<path d="M818 170.6C815.5 136.2 806.4 107 791 83.8C774.9 59.5 752.7 40.8 725 28.1C701.8 17.5 675.2 11.4 646.1 10C644.9 9.9 643.5 9.9 642.1 9.9H572.6C537.9 10.5 504.2 21.6 475.2 42.1C473.3 43.5 470.6 43.3 468.9 41.6C447.1 20.9 418.8 9.9 387 9.9H344.2C309.8 9.9 279.7 22.6 257.2 46.7L257.1 46.8L256.1 47.9C256.1 47.9 256.1 48 256 48L255.9 48.1C250.9 53.6 246.4 59.6 242.6 65.8C242.5 65.9 242.5 66 242.4 66.1L180.7 152.1C180.7 152.1 180.7 152.2 180.6 152.2C164.6 173.6 156.6 198.8 157.5 225.1C157.5 225.2 157.5 225.2 157.5 225.3V241.8C157.5 244 156 246 153.9 246.6C129.2 253.8 108.3 269.7 94.9 291.2C94.8 291.3 94.8 291.4 94.7 291.5L33.4 377C33.4 377.1 33.3 377.1 33.3 377.2C20.5 393.6 12.8 413.4 10.3 436.1C10 439 9.8 441.8 9.8 444.6V475.6C9.8 477.5 9.9 479.5 10 481.5C12.5 515.9 21.6 545.1 37 568.3C53.1 592.6 75.3 611.3 103 624C126.2 634.6 152.6 640.7 181.5 642.1C182.7 642.2 184 642.2 185.4 642.2H242.8C244.3 642.2 245.9 642.2 247.4 642.1C291.2 639.6 330.6 623.8 361.2 596.3C362.2 595.4 363.3 595 364.5 595C365.7 595 366.9 595.4 367.9 596.3C380.1 607.5 394.3 616.8 410.1 624.1C433.3 634.7 459.7 640.8 488.6 642.2C489.8 642.3 491.1 642.3 492.5 642.3H562.9C601.5 641.7 638.4 628.1 669.6 602.9C686.3 589.4 700.6 573.5 712.1 555.6C712.1 555.5 712.2 555.5 712.2 555.4L771.6 472.5C771.6 472.5 771.6 472.4 771.7 472.4C773.4 470.2 775.1 467.8 777 465C777 465 777 464.9 777.1 464.9C777.8 463.9 778.6 462.8 779.4 461.4C787.9 448.4 795 434.3 800.4 419.4C811.5 389.1 817.1 360.7 817.1 335C817.1 333.3 817 331.6 816.9 330C815.5 307.4 810.5 286.5 802.1 268C801.4 266.5 801.5 264.8 802.3 263.4C810.5 249.4 815.6 233.4 817.5 215.8C817.8 213.1 817.9 210.3 817.9 207.5V176.5C817.9 174.7 817.8 172.8 817.7 171C818 170.8 818 170.7 818 170.6ZM743.2 207.4C743.2 207.6 743.2 207.8 743.2 207.9C742.4 215.6 740.3 221.5 737.5 226L711.4 271.3C713.7 273 715.9 274.7 717.9 276.5C732.5 289.5 740.7 309 742.3 334.6C742.3 334.7 742.3 334.8 742.3 334.9C742.3 351.8 738.2 371.5 730.2 393.5C726.6 403.4 721.9 412.6 716.3 421.1C716.3 421.1 716.3 421.2 716.2 421.2L716 421.4C714.5 423.6 712.9 425.8 711.3 427.9L650.3 513C642.9 524.9 633.6 535.4 622.6 544.3C604.3 559.1 583.9 566.7 561.9 567H492.6C492.4 567 492.1 567 491.9 567C472.7 566 455.7 562.2 441.3 555.6C426.5 548.9 414.9 539.1 406.6 526.7C398.4 514.4 393.5 497.2 391.9 475.8C391.9 475.7 391.9 475.6 391.9 475.4V444.4C391.9 444.2 391.9 444 391.9 443.9C392.6 437 394.4 431.6 396.7 427.3L396 426.4L331.6 516.6C331.5 516.7 331.5 516.7 331.4 516.8C325.9 524.8 319.5 532.2 312.3 538.9C294.1 555.9 270.7 565.3 242.9 566.9C242.8 566.9 242.7 566.9 242.6 566.9H185.2C185.1 566.9 185 566.9 185 566.9C165.6 566 148.5 562.1 134 555.5C119.2 548.8 107.6 539 99.3 526.6C91.1 514.3 86.2 497.1 84.6 475.7C84.6 475.6 84.6 475.5 84.6 475.3V444.3C84.6 444.1 84.6 443.9 84.6 443.8C85.6 434.3 88.5 427.5 92.4 422.7L157.5 331.9C163.5 321 173.6 317.6 182.2 316.9C182.3 316.9 182.5 316.9 182.6 316.9H232.1V223.2C231.5 213.5 234.4 204.5 240.6 196.4L304.9 106.7C306.5 103.7 308.6 100.9 311.1 98.2C311.2 98.1 311.3 98 311.3 97.9C319.4 89.1 330.3 84.6 343.8 84.6H386.6C400.2 84.6 411.1 89.1 419.2 98.1C427.2 107 430.9 117 430.3 128V214.3L482.3 142.5C486.7 134.8 491.9 127.7 497.8 121.1C498 120.9 498.1 120.7 498.3 120.5C502.6 115.8 507.3 111.4 512.3 107.3C530.5 92.5 551.1 84.9 573.4 84.6H641.8C641.9 84.6 642 84.6 642 84.6C661.7 85.5 679 89.4 693.5 96C708.3 102.7 719.9 112.4 728.2 124.9C736.4 137.3 741.3 154.4 742.9 175.8C742.9 175.9 742.9 176 742.9 176.2V207.4H743.2Z" fill="#11AFDF"/>
<path d="M828 169.9C828 169.8 828 169.6 827.9 169.5C825.2 133.6 815.6 102.9 799.3 78.3C782.2 52.4 758.5 32.5 729.1 19C704.7 7.9 676.9 1.5 646.5 0.0999985C645.1 -1.52737e-06 643.6 0 642.1 0H572.5C537 0.5 502.5 11.5 472.7 31.6C449.5 10.9 419.9 0 386.9 0H344.2C306.9 0 274.3 13.8 249.9 40C249.9 40.1 249.8 40.1 249.8 40.2L248.8 41.3C248.7 41.4 248.6 41.5 248.5 41.7C243.2 47.6 238.4 54 234.2 60.6L172.6 146.4C155.2 169.6 146.6 197 147.5 225.5V238.3C122.1 246.7 100.5 263.5 86.5 286L25.4 371.3C11.5 389.2 3.1 410.7 0.499999 435.2C0.199999 438.4 0 441.7 0 444.8V475.8C0 477.9 0.0999998 480.1 0.2 482.4C2.9 518.5 12.5 549.4 28.8 574C45.9 599.9 69.6 619.8 99 633.3C123.4 644.4 151 650.8 181.2 652.3C182.6 652.4 184 652.4 185.6 652.4H243C244.7 652.4 246.4 652.4 248.2 652.3C292.7 649.8 332.9 634.1 364.8 606.9C377 617.5 390.9 626.4 406.3 633.4C430.7 644.5 458.3 650.9 488.5 652.4C489.9 652.5 491.3 652.5 492.9 652.5H563.2C604.1 651.9 643.1 637.5 676.1 610.8C693.6 596.7 708.5 580 720.7 561.3L780 478.6C781.8 476.3 783.6 473.8 785.5 471C786.3 469.9 787.2 468.6 788.1 467.2C797 453.6 804.4 438.8 810.1 423.2C821.6 391.8 827.4 362.3 827.4 335.3C827.4 333.4 827.3 331.5 827.2 329.7C825.8 306.8 820.8 285.6 812.6 266.6C820.8 251.9 825.9 235.4 827.8 217.3C828.1 214.2 828.3 211.1 828.3 207.9V176.9C828.2 174.3 828.2 172.1 828 169.9ZM818.2 207.4C818.2 210.2 818.1 213 817.8 215.7C815.9 233.3 810.8 249.3 802.6 263.3C801.8 264.7 801.7 266.4 802.4 267.9C810.8 286.4 815.8 307.3 817.2 329.9C817.3 331.5 817.4 333.2 817.4 334.9C817.4 360.6 811.8 389 800.7 419.3C795.3 434.2 788.2 448.3 779.7 461.3C778.8 462.6 778.1 463.8 777.4 464.8C777.4 464.8 777.4 464.9 777.3 464.9C775.4 467.6 773.7 470 772 472.3C772 472.3 772 472.4 771.9 472.4L712.5 555.3C712.5 555.4 712.4 555.4 712.4 555.5C700.9 573.4 686.5 589.3 669.9 602.8C638.7 628 601.8 641.7 563.2 642.2H492.8C491.4 642.2 490.1 642.2 488.9 642.1C460 640.7 433.6 634.6 410.4 624C394.5 616.8 380.3 607.4 368.2 596.2C367.2 595.3 366 594.9 364.8 594.9C363.6 594.9 362.4 595.3 361.5 596.2C330.9 623.7 291.5 639.5 247.7 642C246.1 642.1 244.6 642.1 243.1 642.1H185.7C184.4 642.1 183.1 642.1 181.8 642C152.9 640.6 126.5 634.5 103.3 623.9C75.6 611.3 53.4 592.5 37.3 568.2C21.9 545 12.9 515.8 10.3 481.4C10.2 479.4 10.1 477.4 10.1 475.5V444.5C10.1 441.7 10.3 438.8 10.6 436C13 413.3 20.8 393.5 33.6 377.1C33.6 377 33.7 377 33.7 376.9L95 291.4C95.1 291.3 95.1 291.2 95.2 291.1C108.6 269.6 129.5 253.7 154.2 246.5C156.3 245.9 157.8 243.9 157.8 241.7V225.2C157.8 225.1 157.8 225.1 157.8 225C156.9 198.7 164.9 173.5 180.9 152.1C180.9 152.1 180.9 152 181 152L242.7 66C242.8 65.9 242.8 65.8 242.9 65.7C246.7 59.5 251.2 53.5 256.2 48L256.3 47.9C256.3 47.9 256.3 47.9 256.4 47.8L257.4 46.7L257.5 46.6C280 22.5 310 9.8 344.5 9.8H387.3C419.1 9.8 447.4 20.7 469.2 41.5C470.9 43.1 473.6 43.3 475.5 42C504.5 21.5 538.2 10.4 573 9.9H642.2C643.6 9.9 644.9 9.9 646.2 10C675.3 11.4 701.9 17.5 725.1 28.1C752.8 40.8 775 59.5 791.1 83.8C806.5 107 815.5 136.2 818.1 170.6C818.1 170.7 818.1 170.9 818.1 171C818.2 172.9 818.3 174.7 818.3 176.5V207.4H818.2Z" fill="#231F20"/>
<path d="M183.1 327.2C170.9 328.3 164.4 335.5 162.8 349.8V380.3C164.3 399.9 168.7 415.4 175.9 426.2C183.1 437 193.3 445.6 206.4 451.5C219.7 457.6 235.6 461.1 253.6 462H310.7C336 460.5 357.2 452 373.7 436.7C390.4 421.2 402.3 401.7 409.2 378.8C416.2 355.5 420 332.2 420.6 309.4V128.2C420.6 128.1 420.6 128 420.6 127.9C421.1 119.5 418.3 112.1 412.1 105.1C405.9 98.2 397.6 94.9 386.9 94.9H344.1C333.3 94.9 325.1 98.2 318.9 105.1C312.6 112 309.9 119.5 310.4 127.8C310.4 127.9 310.4 128 310.4 128.1V307.6C310.4 307.7 310.4 307.8 310.4 307.9C309.8 319 308.7 330.3 307.2 341.7C305.6 353.8 302.8 363.2 298.8 370.2C298.5 370.6 298.2 371 297.9 371.4C291.8 377.1 284.5 377.1 277.7 371.6C277.6 371.5 277.4 371.4 277.3 371.3C274 368 272.8 361.6 273.1 349.8C271.5 335.5 264.9 328.3 252.4 327.3H183.1V327.2Z" fill="#F6B428"/>
<path d="M648.6 254.8C607.9 243.7 598.8 238.1 595.4 234.9C589.9 229.6 587 223.2 586.6 215.8C586.6 215.7 586.6 215.5 586.6 215.4C586.9 202.9 589.1 193.5 593.2 186.6C593.4 186.2 593.7 185.8 594.1 185.5C600.1 179.9 607.3 179.8 614 185.1C619.1 188.3 621.6 195.4 621.6 207.2C622.9 221.5 629.5 228.7 642.3 229.7H712.5C725 228.6 731.6 221.4 733.2 207.1V176.6C731.7 157 727.3 141.6 720.1 130.7C712.9 119.9 702.7 111.3 689.6 105.4C676.3 99.3 660.3 95.8 641.9 94.9H573.7C553.7 95.2 535.2 102.1 518.8 115.4C502.1 128.9 489.9 146.1 482.3 166.7C474.7 187.6 470.9 206.1 471.2 221.7C472.3 244.4 479.3 261.6 491.8 272.8C504.8 284.4 525.9 294.2 554.5 302C594.8 313 604.1 318.4 607.7 321.9C613.2 327.2 616.1 333.6 616.5 340.9C616.5 341 616.5 341.2 616.5 341.3C616.2 353.8 613.6 363.6 608.8 370.4C608.6 370.7 608.4 371 608.1 371.2C602 376.9 594.7 376.9 588.2 371.3L588.1 371.2C582.9 366.3 580.2 359.1 580.1 349.6C578.5 335.3 571.9 328.1 559.4 327H490.6C478.1 328.1 471.5 335.3 469.9 349.6V380.1C471.4 399.7 475.8 415.2 483 426C490.2 436.8 500.4 445.4 513.5 451.3C526.8 457.4 542.8 460.9 560.8 461.8C560.9 461.8 560.9 461.8 561 461.8H629.8C649.4 461.5 667.8 454.6 684.3 441.3C701 427.8 713.2 410.5 720.8 390C728.4 369.2 732.3 350.6 732.3 335C730.8 312.3 723.8 295.1 711.2 283.9C698.2 272.5 677.1 262.6 648.6 254.8Z" fill="#F6B428"/>
<path d="M728.5 125.2C720.3 112.8 708.6 103.1 693.8 96.3C679.3 89.7 662 85.9 642.3 84.9C642.2 84.9 642.1 84.9 642.1 84.9H573.7C551.4 85.2 530.8 92.9 512.6 107.6C507.5 111.7 502.9 116.1 498.6 120.8C498.4 121 498.2 121.2 498.1 121.4C492.2 128 487 135.1 482.6 142.8L430.6 214.6V128.3C431.2 117.3 427.5 107.2 419.5 98.4C411.4 89.5 400.4 84.9 386.9 84.9H344.1C330.6 84.9 319.7 89.4 311.6 98.2C311.5 98.3 311.4 98.4 311.4 98.5C308.9 101.2 306.9 104.1 305.2 107L240.9 196.7C234.7 204.8 231.8 213.8 232.4 223.5V317.2H182.9C182.8 317.2 182.6 317.2 182.5 317.2C173.9 317.9 163.8 321.3 157.8 332.2L92.7 423C88.8 427.8 85.9 434.6 84.9 444.1C84.9 444.3 84.9 444.5 84.9 444.6V475.6C84.9 475.7 84.9 475.8 84.9 476C86.5 497.4 91.4 514.5 99.6 526.9C107.8 539.3 119.5 549 134.3 555.8C148.8 562.4 166 566.2 185.3 567.2C185.4 567.2 185.5 567.2 185.5 567.2H242.9C243 567.2 243.1 567.2 243.2 567.2C271 565.6 294.3 556.2 312.6 539.2C319.8 532.5 326.2 525.1 331.7 517.1C331.8 517 331.8 517 331.9 516.9L396.3 426.7L397 427.6C394.6 431.9 392.9 437.3 392.2 444.2C392.2 444.4 392.2 444.6 392.2 444.7V475.7C392.2 475.8 392.2 475.9 392.2 476.1C393.8 497.5 398.7 514.6 406.9 527C415.1 539.4 426.8 549.1 441.6 555.9C456 562.5 473 566.3 492.2 567.3C492.4 567.3 492.7 567.3 492.9 567.3H562.2C584.2 567 604.6 559.3 622.9 544.6C634 535.7 643.2 525.2 650.6 513.3L711.6 428.2C713.2 426.1 714.8 423.9 716.3 421.7L716.5 421.5C716.5 421.5 716.5 421.4 716.6 421.4C722.2 412.9 726.9 403.7 730.5 393.8C738.6 371.8 742.6 352.1 742.6 335.2C742.6 335.1 742.6 335 742.6 334.9C741 309.4 732.8 289.8 718.2 276.8C716.2 275 714 273.3 711.7 271.6L737.8 226.3C740.6 221.8 742.7 215.9 743.5 208.2C743.5 208 743.5 207.8 743.5 207.7V176.7C743.5 176.6 743.5 176.5 743.5 176.3C741.7 154.7 736.7 137.6 728.5 125.2ZM732.3 335.1C732.3 350.8 728.4 369.3 720.8 390.1C713.3 410.7 701 428 684.3 441.4C667.8 454.7 649.5 461.6 629.8 461.9H561C560.9 461.9 560.9 461.9 560.8 461.9C542.7 461 526.8 457.5 513.5 451.4C500.5 445.4 490.2 436.9 483 426.1C475.8 415.2 471.4 399.8 469.9 380.2V349.7C471.5 335.4 478.1 328.2 490.6 327.1H559.4C571.9 328.2 578.5 335.4 580.1 349.7C580.2 359.2 582.8 366.4 588.1 371.3L588.2 371.4C594.7 377 601.9 377 608.1 371.3C608.4 371.1 608.6 370.8 608.8 370.5C613.6 363.6 616.2 353.8 616.5 341.4C616.5 341.3 616.5 341.1 616.5 341C616.1 333.6 613.2 327.2 607.7 322C604.1 318.5 594.8 313.1 554.5 302.1C526 294.3 504.9 284.5 491.8 272.9C479.2 261.7 472.3 244.6 471.2 221.8C470.9 206.1 474.6 187.6 482.3 166.8C489.8 146.2 502.1 128.9 518.8 115.5C535.3 102.2 553.8 95.3 573.7 95H641.9C660.3 95.9 676.3 99.4 689.6 105.5C702.6 111.4 712.9 120 720.1 130.8C727.3 141.7 731.7 157.1 733.2 176.7V207.2C731.6 221.5 725 228.7 712.5 229.8H642.3C629.5 228.7 622.9 221.6 621.6 207.3C621.6 195.5 619.2 188.5 614 185.2C607.3 179.9 600.1 180.1 594.1 185.6C593.8 185.9 593.5 186.3 593.2 186.7C589.1 193.6 586.9 203 586.6 215.5C586.6 215.6 586.6 215.8 586.6 215.9C587 223.3 589.9 229.7 595.4 235C598.7 238.2 607.9 243.8 648.6 254.9C677.2 262.7 698.2 272.5 711.3 284.1C723.8 295.2 730.9 312.4 732.3 335.1ZM252.4 327.2C264.9 328.3 271.5 335.4 273.1 349.7C272.8 361.5 274 368 277.3 371.2C277.4 371.3 277.6 371.4 277.7 371.5C284.5 377 291.8 376.9 297.9 371.3C298.3 371 298.6 370.6 298.8 370.1C302.8 363.1 305.5 353.8 307.2 341.6C308.7 330.2 309.8 318.8 310.4 307.8C310.4 307.7 310.4 307.6 310.4 307.5V128.2C310.4 128.1 310.4 128 310.4 127.9C309.9 119.5 312.7 112.1 318.9 105.2C325.1 98.3 333.3 95 344.1 95H386.9C397.7 95 405.9 98.3 412.1 105.2C418.3 112.1 421.1 119.6 420.6 128C420.6 128.1 420.6 128.2 420.6 128.3V309.5C420 332.3 416.2 355.7 409.2 378.9C402.4 401.8 390.4 421.2 373.7 436.8C357.2 452.1 336 460.6 310.7 462.1H253.6C235.6 461.2 219.7 457.7 206.4 451.6C193.4 445.6 183.1 437.1 175.9 426.3C168.7 415.4 164.3 400 162.8 380.4V349.9C164.4 335.6 170.8 328.4 183.1 327.3H252.4V327.2Z" fill="#231F20"/>
</svg>
