<svg width="912" height="836" viewBox="0 0 912 836" fill="none" xmlns="http://www.w3.org/2000/svg">
<path d="M646.9 252.002C653.4 192.602 642.9 150.402 618.1 136.102C611.4 132.202 603.3 130.302 594.1 130.302C569.8 130.302 537.5 144.102 503.3 169.102C502.8 169.502 502.3 169.902 501.7 170.302C521.6 190.302 541.1 212.802 559.7 237.202C590.1 241.102 619.3 246.802 646.6 254.002C646.8 253.302 646.8 252.702 646.9 252.002Z" fill="#7B5EA7"/>
<path d="M617.7 511.402C614.5 517.002 611.1 522.702 607.6 528.402C617 526.302 626.2 524.002 635.2 521.602C632.8 512.602 630.2 503.502 627.3 494.302C624.1 500.002 620.9 505.802 617.7 511.402Z" fill="#7B5EA7"/>
<path d="M292.9 699.502C317.7 713.802 359.5 701.802 407.7 666.502C408.2 666.102 408.7 665.702 409.2 665.402C389.3 645.402 369.8 622.902 351.2 598.502C320.8 594.602 291.6 588.902 264.3 581.702C264.2 582.302 264.2 583.002 264.1 583.602C257.6 642.902 268.1 685.202 292.9 699.502Z" fill="#7B5EA7"/>
<path d="M384.5 294.802C371.1 313.802 358.2 333.902 346.2 354.702C334.3 375.402 323.3 396.602 313.5 417.802C323.3 439.002 334.3 460.202 346.2 480.902C358.1 501.602 371 521.702 384.5 540.802C430.9 545.102 480.1 545.102 526.5 540.802C539.9 521.802 552.8 501.702 564.8 480.902C576.7 460.202 587.7 439.002 597.5 417.802C587.7 396.602 576.7 375.402 564.8 354.702C552.9 334.002 540 313.902 526.5 294.802C480 290.602 431 290.602 384.5 294.802Z" fill="#7B5EA7"/>
<path d="M607.6 307.202C611 312.802 614.4 318.502 617.7 324.202C620.9 329.702 624.1 335.502 627.4 341.402C630.3 332.202 633 323.102 635.3 314.002C626.3 311.602 617 309.302 607.6 307.202Z" fill="#7B5EA7"/>
<path d="M303.4 307.202C294 309.302 284.7 311.602 275.8 314.002C278.2 323.002 280.8 332.102 283.7 341.302C286.9 335.502 290.1 329.702 293.3 324.102C296.6 318.602 300 312.902 303.4 307.202Z" fill="#7B5EA7"/>
<path d="M455.5 605.002C449.1 605.002 442.5 604.902 435.8 604.802C442.3 611.902 448.9 618.802 455.5 625.302C462.1 618.802 468.7 611.902 475.2 604.802C468.5 605.002 461.9 605.002 455.5 605.002Z" fill="#7B5EA7"/>
<path d="M455.5 230.602C461.9 230.602 468.5 230.702 475.2 230.802C468.7 223.702 462.1 216.802 455.5 210.302C448.9 216.802 442.3 223.702 435.8 230.802C442.5 230.702 449.1 230.602 455.5 230.602Z" fill="#7B5EA7"/>
<path d="M694.8 500.702C749.5 476.602 780.8 446.402 780.8 417.802C780.8 389.202 749.5 359.002 694.8 334.902C694.2 334.602 693.6 334.402 693 334.102C685.6 361.402 675.9 389.502 664.1 417.802C675.9 446.102 685.6 474.202 693 501.502C693.6 501.202 694.2 501.002 694.8 500.702Z" fill="#7B5EA7"/>
<path d="M901.1 417.802C901.1 376.102 884.9 335.702 854.2 301.102C854.1 301.002 854.1 301.002 854 300.902C833 277.302 805.2 256.302 771.5 238.402C769.8 237.502 768.8 235.702 768.8 233.802C770.2 195.602 765.8 161.102 755.9 131.102C741.3 87.1016 714.5 52.8016 678.3 31.9016C642.1 11.0016 598.9 4.9016 553.5 14.3016C522.6 20.7016 490.5 34.2016 458.1 54.5016C456.5 55.5016 454.4 55.5016 452.8 54.5016C420.4 34.2016 388.3 20.7016 357.4 14.3016C312 4.9016 268.9 11.0016 232.6 31.9016C196.4 52.8016 169.5 87.1016 155 131.102C145.1 161.002 140.7 195.602 142.1 233.802C142.2 235.702 141.1 237.502 139.4 238.402C105.7 256.302 77.9 277.302 56.9 300.902C26.1 335.502 9.8 375.902 9.8 417.802C9.8 459.602 26.1 500.002 56.9 534.702C77.9 558.302 105.7 579.302 139.4 597.202C141.1 598.102 142.1 599.902 142.1 601.802C140.7 640.002 145.1 674.502 155 704.502C169.6 748.502 196.4 782.802 232.6 803.702C257.8 818.302 286 825.602 316.5 825.602C359.9 825.602 405.7 810.602 452.8 781.102C453.6 780.602 454.5 780.302 455.5 780.302C456.5 780.302 457.3 780.602 458.2 781.102C505.3 810.602 551.1 825.602 594.5 825.602C624.9 825.602 653.1 818.202 678.4 803.702C714.6 782.802 741.5 748.502 756 704.502C765.9 674.602 770.3 640.002 768.9 601.802C768.8 599.902 769.9 598.102 771.6 597.202C805.3 579.302 833.1 558.202 854.1 534.702C884.8 500.002 901.1 459.602 901.1 417.802ZM719.4 556.502C715.1 558.402 710.5 560.302 705.7 562.202C706.4 567.302 707 572.002 707.6 576.602C707.6 576.702 707.6 576.802 707.6 576.902C716.9 662.702 696 724.902 648.6 752.302C632.5 761.602 614.3 766.302 594.4 766.302C556.4 766.302 512.4 748.802 467.2 715.702C463.4 712.902 459.4 709.902 455.4 706.702C451.3 709.902 447.4 712.902 443.6 715.702C398.4 748.802 354.4 766.302 316.4 766.302C296.5 766.302 278.3 761.602 262.2 752.302C214.8 724.902 193.9 662.702 203.3 576.902C203.8 572.202 204.4 567.402 205.2 562.202C200.4 560.302 195.9 558.402 191.5 556.502C112.6 521.702 69.1 472.402 69.1 417.802C69.1 363.102 112.6 313.802 191.5 279.102C195.8 277.202 200.4 275.302 205.2 273.402C204.4 268.202 203.8 263.402 203.3 258.702C194 172.902 214.9 110.702 262.3 83.3016C309.7 55.9016 374.1 69.0016 443.7 119.902C447.5 122.702 451.5 125.702 455.5 128.902C459.6 125.702 463.5 122.702 467.3 119.902C536.9 68.9016 601.3 55.9016 648.7 83.3016C648.8 83.4016 648.9 83.4016 649 83.5016C696.2 110.902 717 173.102 707.7 258.702C707.2 263.402 706.6 268.202 705.8 273.402C710.5 275.302 714.9 277.102 719.1 279.002C719.2 279.002 719.4 279.102 719.5 279.202C798.3 313.802 841.8 363.102 841.8 417.802C841.8 472.502 798.3 521.802 719.4 556.502Z" fill="#7B5EA7"/>
<path d="M407.7 169.102C373.5 144.102 341.3 130.302 316.9 130.302C307.7 130.302 299.6 132.302 292.9 136.102C268.1 150.402 257.6 192.702 264.1 252.002C264.1 252.102 264.1 252.202 264.1 252.402C264.2 252.902 264.2 253.502 264.3 254.002C291.6 246.802 320.7 241.102 351.2 237.202C369.8 212.802 389.3 190.302 409.2 170.302C408.7 169.902 408.2 169.502 407.7 169.102Z" fill="#7B5EA7"/>
<path d="M501.8 665.302C502.3 665.702 502.8 666.102 503.4 666.502C551.6 701.802 593.4 713.802 618.2 699.502C643 685.202 653.5 642.902 647 583.602C646.9 583.002 646.9 582.302 646.8 581.602C619.5 588.802 590.4 594.502 559.9 598.402C541.2 622.902 521.7 645.302 501.8 665.302Z" fill="#7B5EA7"/>
<path d="M130.2 417.802C130.2 446.402 161.5 476.602 216.2 500.702C216.8 501.002 217.4 501.202 218 501.502C225.4 474.202 235.1 446.102 246.9 417.802C235.1 389.502 225.4 361.402 218 334.102C217.4 334.402 216.8 334.602 216.2 334.902C161.6 359.002 130.2 389.202 130.2 417.802Z" fill="#7B5EA7"/>
<path d="M303.4 528.402C300 522.802 296.6 517.102 293.3 511.402C290.1 505.902 286.9 500.102 283.7 494.202C280.8 503.402 278.1 512.502 275.8 521.502C284.7 524.002 294 526.302 303.4 528.402Z" fill="#7B5EA7"/>
<path d="M861.5 294.302C861.4 294.202 861.4 294.202 861.3 294.102C840.1 270.402 812.4 249.202 778.9 231.102C780 193.002 775.4 158.302 765.4 128.002C750 81.6016 721.6 45.4016 683.3 23.3016C644.9 1.1016 599.4 -5.2984 551.5 4.5016C520.3 10.9016 488 24.3016 455.5 44.4016C423 24.4016 390.7 11.0016 359.5 4.5016C311.7 -5.3984 266.1 1.1016 227.7 23.3016C189.3 45.4016 160.9 81.7016 145.6 128.002C135.6 158.302 131 192.902 132.1 231.102C98.5 249.302 70.8 270.502 49.6 294.302C17.1 330.802 0 373.502 0 417.802C0 462.102 17.2 504.802 49.6 541.302C70.8 565.102 98.6 586.402 132.1 604.502C131 642.602 135.6 677.302 145.6 707.602C161 754.002 189.4 790.202 227.7 812.302C254.5 827.702 284.3 835.602 316.6 835.602C361.1 835.602 407.8 820.702 455.6 791.202C503.4 820.602 550.1 835.602 594.6 835.602C626.8 835.602 656.7 827.802 683.4 812.302C721.8 790.202 750.2 753.902 765.5 707.602C775.5 677.302 780.1 642.702 779 604.502C812.6 586.302 840.3 565.102 861.5 541.302C894 504.802 911.1 462.102 911.1 417.802C911.1 373.502 894 330.802 861.5 294.302ZM771.5 597.202C769.8 598.102 768.8 599.902 768.8 601.802C770.2 640.002 765.8 674.602 755.9 704.502C741.3 748.502 714.5 782.802 678.3 803.702C653.1 818.302 624.9 825.602 594.4 825.602C551 825.602 505.2 810.602 458.1 781.102C457.3 780.602 456.4 780.302 455.4 780.302C454.4 780.302 453.6 780.602 452.7 781.102C405.6 810.602 359.8 825.602 316.4 825.602C286 825.602 257.8 818.202 232.5 803.702C196.3 782.802 169.4 748.502 154.9 704.502C145 674.502 140.6 640.002 142 601.802C142.1 599.902 141 598.102 139.3 597.202C105.6 579.302 77.8 558.202 56.8 534.702C26 500.102 9.7 459.702 9.7 417.802C9.7 376.002 26 335.602 56.8 300.902C77.8 277.302 105.6 256.302 139.3 238.402C141 237.502 142 235.702 142 233.802C140.6 195.602 145 161.002 154.9 131.102C169.5 87.1016 196.3 52.8016 232.5 31.9016C268.7 11.0016 311.9 4.9016 357.3 14.3016C388.2 20.7016 420.3 34.2016 452.7 54.5016C454.3 55.5016 456.4 55.5016 458 54.5016C490.4 34.2016 522.5 20.7016 553.4 14.3016C598.8 4.9016 641.9 11.0016 678.2 31.9016C714.4 52.8016 741.3 87.1016 755.8 131.102C765.7 161.102 770.1 195.602 768.7 233.802C768.6 235.702 769.7 237.502 771.4 238.402C805.1 256.302 832.9 277.302 853.9 300.902C854 301.002 854 301.002 854.1 301.102C884.8 335.702 901 376.002 901 417.802C901 459.602 884.7 500.002 853.9 534.702C833 558.202 805.3 579.302 771.5 597.202Z" fill="#231F20"/>
<path d="M493.8 176.402C493.7 176.502 493.6 176.602 493.5 176.602C492.6 177.302 491.7 178.102 490.7 178.802C490.2 179.202 489.7 179.602 489.1 180.102C488.2 180.802 487.3 181.502 486.4 182.302C485.8 182.802 485.3 183.202 484.7 183.702C483.8 184.402 483 185.102 482.1 185.902C481.6 186.302 481 186.802 480.5 187.302C478.9 188.602 477.4 190.002 475.8 191.402C475.2 192.002 474.5 192.502 473.9 193.102C473.1 193.802 472.3 194.502 471.5 195.302C470.9 195.902 470.2 196.402 469.6 197.002C468.8 197.802 467.9 198.502 467.1 199.302C466.5 199.802 466 200.302 465.4 200.902C464.5 201.702 463.6 202.602 462.7 203.402C462.6 203.402 462.6 203.502 462.5 203.502C471.4 212.302 480.2 221.602 488.9 231.402C490.9 231.502 492.9 231.602 494.9 231.702C495.2 231.702 495.6 231.702 495.9 231.702C498.6 231.802 501.4 232.002 504.1 232.102C504.9 232.102 505.7 232.202 506.5 232.202C508.5 232.302 510.4 232.402 512.4 232.602C513.3 232.702 514.3 232.702 515.2 232.802C517.1 232.902 518.9 233.102 520.8 233.202C521.7 233.302 522.6 233.302 523.5 233.402C525.8 233.602 528.2 233.802 530.5 234.002C530.9 234.002 531.2 234.102 531.6 234.102C534.3 234.302 536.9 234.602 539.6 234.902C540.4 235.002 541.2 235.102 542 235.202C543.3 235.302 544.5 235.502 545.8 235.602C529.1 214.102 511.6 194.202 493.8 176.402Z" fill="#F9F4DA"/>
<path d="M213.3 257.602C213.7 261.502 214.2 265.402 214.8 269.702C227.5 265.002 240.8 260.602 254.5 256.702C254.3 255.402 254.2 254.302 254.1 253.202C254.1 253.102 254.1 253.002 254.1 252.902C247.3 189.602 259.6 143.902 287.9 127.602C296.1 122.802 305.9 120.402 316.9 120.402C343.7 120.402 377.2 134.502 413.6 161.202C414.6 161.902 415.5 162.602 416.5 163.302C416.6 163.202 416.6 163.202 416.7 163.102C417.8 162.002 418.9 161.002 420 159.902C420.3 159.702 420.5 159.402 420.8 159.202C425.6 154.602 430.5 150.102 435.4 145.802C435.6 145.602 435.9 145.402 436.1 145.202C437.2 144.202 438.3 143.302 439.4 142.302C439.7 142.102 439.9 141.802 440.2 141.602C442.6 139.502 445.1 137.502 447.5 135.502C444.2 132.902 440.9 130.502 437.8 128.202C393.8 96.0016 352.3 79.5016 316.6 79.5016C298.6 79.5016 282 83.7016 267.4 92.2016C223.6 117.202 204.4 176.002 213.3 257.602Z" fill="#F9F4DA"/>
<path d="M602.9 405.802C610.4 388.602 617.2 371.402 623 354.502C618.3 345.702 613.6 337.302 609 329.202C604.2 320.902 599.2 312.602 594.1 304.502C586.8 303.102 579.5 301.802 572 300.602C571.6 300.502 571.2 300.502 570.8 300.402C568.5 300.002 566.3 299.702 564 299.402C563.5 299.302 563 299.302 562.5 299.202C560 298.802 557.6 298.502 555.1 298.202C554.9 298.202 554.7 298.102 554.5 298.102C549.6 297.402 544.6 296.902 539.6 296.302C551.5 313.502 562.8 331.402 573.4 349.802C584.1 368.102 594 386.902 602.9 405.802Z" fill="#F9F4DA"/>
<path d="M455.5 554.002C434.2 554.002 413 553.202 392.2 551.502C393.2 552.902 394.3 554.302 395.3 555.702C395.6 556.102 395.9 556.502 396.1 556.802C397.7 558.902 399.3 561.002 400.9 563.102C401.3 563.602 401.7 564.202 402.1 564.702C403.3 566.302 404.5 567.802 405.7 569.302C406.3 570.002 406.8 570.702 407.4 571.402C408.5 572.802 409.6 574.202 410.7 575.502C411.3 576.202 411.8 576.902 412.4 577.602C413.6 579.102 414.8 580.502 416 582.002C416.5 582.602 416.9 583.102 417.4 583.702C419 585.702 420.7 587.602 422.3 589.502C422.7 589.902 423 590.302 423.4 590.702C424.5 591.902 425.5 593.102 426.6 594.302C436.4 594.602 446.1 594.802 455.5 594.802C464.8 594.802 474.5 594.602 484.4 594.302C484.6 594.102 484.7 593.902 484.9 593.802C489 589.102 493.1 584.202 497.1 579.302C497.3 579.102 497.5 578.802 497.7 578.602C499 577.102 500.2 575.502 501.4 574.002C501.7 573.602 502 573.302 502.2 572.902C503.5 571.302 504.7 569.702 506 568.102C506.1 567.902 506.3 567.702 506.4 567.602C510.6 562.302 514.7 556.802 518.8 551.302C498 553.202 476.8 554.002 455.5 554.002Z" fill="#F9F4DA"/>
<path d="M341.4 585.402C340.5 584.202 339.7 583.002 338.8 581.902C337.9 580.602 337 579.302 336.1 578.102C334.9 576.402 333.7 574.702 332.5 573.002C331.7 571.802 330.9 570.702 330.1 569.502C329.3 568.402 328.5 567.202 327.7 566.102C327 565.102 326.3 564.002 325.5 562.902C324.7 561.702 323.9 560.502 323 559.302C322.4 558.402 321.7 557.402 321.1 556.502C320.2 555.202 319.3 553.902 318.5 552.502C318.3 552.102 318 551.702 317.8 551.402C315.5 547.902 313.3 544.402 311 540.902C310.9 540.702 310.8 540.602 310.7 540.402C297.9 537.802 285.3 534.802 273.3 531.502C270 545.402 267.4 558.902 265.5 571.902C289.9 578.202 315.8 583.402 342.8 587.202C342.3 586.602 341.9 586.002 341.4 585.402Z" fill="#F9F4DA"/>
<path d="M568.2 587.202C595.2 583.402 621.1 578.102 645.4 571.602C645.3 571.202 645.3 570.702 645.2 570.302C645.2 570.002 645.1 569.702 645.1 569.402C644.9 567.802 644.6 566.102 644.3 564.502C644.2 564.202 644.2 563.802 644.1 563.502C643.8 561.702 643.5 559.902 643.2 558.202C643.2 558.102 643.2 557.902 643.1 557.802C642.4 553.802 641.6 549.702 640.7 545.602C640.7 545.502 640.6 545.302 640.6 545.202C640.2 543.302 639.8 541.402 639.4 539.502C639.4 539.302 639.3 539.102 639.3 538.902C638.7 536.402 638.2 533.902 637.6 531.402C625.6 534.702 613 537.702 600.3 540.302C590.1 556.302 579.3 572.102 568.2 587.202Z" fill="#F9F4DA"/>
<path d="M458.6 139.202C445.8 149.402 433 160.902 420.3 173.402C398.9 194.502 377.9 218.502 357.9 244.902C357.9 244.902 357.9 244.902 357.9 245.002C344 263.302 330.6 282.702 318.1 302.702C312.5 311.602 307.2 320.502 302.1 329.202C297.4 337.402 292.7 345.902 288.1 354.402C293.9 371.302 300.6 388.502 308.2 405.702C317.2 386.902 327 368.002 337.7 349.702C350.2 328.002 363.7 307.002 377.8 287.202C391.5 267.902 405.9 249.602 420.6 232.902C430.9 221.102 441.5 210.002 452.1 199.702C465.1 187.102 478.2 175.702 491.2 165.802C493.2 164.202 495.4 162.602 497.5 161.102C533.9 134.402 567.4 120.302 594.2 120.302C605.2 120.302 615 122.702 623.2 127.502C651.6 143.902 663.9 189.702 656.9 253.202C656.8 254.402 656.6 255.602 656.5 256.702C657.2 256.902 657.8 257.102 658.4 257.302C658.7 257.402 659 257.502 659.3 257.602C661.1 258.102 662.8 258.602 664.6 259.202C664.9 259.302 665.3 259.402 665.6 259.502C669.6 260.702 673.5 261.902 677.3 263.202C677.9 263.402 678.6 263.602 679.2 263.802C680.4 264.202 681.6 264.602 682.8 265.002C683.6 265.302 684.4 265.502 685.1 265.802C686.2 266.202 687.3 266.602 688.4 267.002C689.2 267.302 689.9 267.502 690.7 267.802C692.3 268.402 693.8 268.902 695.4 269.502C695.6 269.602 695.8 269.702 696.1 269.702C696.7 265.502 697.2 261.502 697.6 257.602C706.5 176.002 687.3 117.202 643.6 92.0016C643.5 91.9016 643.4 91.9016 643.3 91.8016C599.6 66.8016 539.2 79.6016 473.1 128.002C468.6 131.302 463.8 135.002 458.6 139.202Z" fill="#F9F4DA"/>
<path d="M490.7 662.302C512.1 641.202 533.1 617.102 553.2 590.802C567.1 572.502 580.5 553.102 593 533.102C598.6 524.202 604 515.302 609 506.502C614.1 497.702 619.1 488.602 624 479.302C624.3 478.702 624.6 478.202 624.9 477.602C635.6 457.202 645.5 436.502 654.1 416.002C666.3 387.002 676.2 358.302 683.7 330.402C671.5 325.502 658.5 321.002 644.8 316.902C641.5 329.702 637.5 342.702 633.1 355.702C625.9 376.902 617.3 398.502 607.5 420.002C597.4 442.202 585.9 464.402 573.4 486.002C560.9 507.702 547.4 528.702 533.3 548.502C519.6 567.802 505.2 586.002 490.5 602.802C480.2 614.502 469.6 625.702 459 635.902C459 635.902 459 635.902 459 636.002C446.1 648.502 432.9 659.902 419.9 669.902C419.9 669.902 419.8 669.902 419.8 670.002C417.8 671.502 415.7 673.102 413.6 674.602C362.1 712.302 316.3 724.602 287.9 708.202C259.5 691.802 247.2 646.002 254.2 582.502C254.5 579.702 254.8 577.002 255.1 574.702C257.2 558.502 260.5 541.402 264.9 523.902C268.3 510.202 272.5 496.102 277.2 482.102C268.3 465.102 260 447.902 252.5 430.802C241.8 457.502 233 484.002 226.3 509.702C221.8 526.902 218.3 543.802 215.9 559.902C214.9 566.402 214.1 572.402 213.5 578.102C204.6 659.702 223.8 718.502 267.5 743.702C282 752.102 298.6 756.402 316.7 756.402C352.5 756.402 394.5 739.602 438 707.702C442.6 704.302 447.4 700.702 452.6 696.502C465.2 686.202 478.1 674.702 490.7 662.302Z" fill="#F9F4DA"/>
<path d="M831.8 417.802C831.8 367.402 790.6 321.402 715.7 288.402C715.6 288.402 715.4 288.302 715.3 288.302C710 286.002 704.3 283.602 698.3 281.302C683.1 275.402 666.7 269.902 649.6 265.202C620.6 257.202 589.2 251.002 556.4 246.902C533.7 244.002 510.1 242.102 486.5 241.302C475.9 240.902 465.5 240.702 455.5 240.702C446.2 240.702 436.5 240.902 426.6 241.202C414.9 254.702 403.3 269.102 392.2 284.202C437.4 280.602 484.8 280.902 529.7 285.202C553.2 287.402 576.2 290.802 598.2 295.202C613.6 298.302 628.5 301.902 642.7 305.902C660 310.802 676.5 316.502 691.6 322.802C694 323.802 696.4 324.802 698.8 325.902C757.3 351.702 790.8 385.202 790.8 418.002C790.8 450.802 757.3 484.302 698.8 510.002C697.7 510.502 696.6 511.002 695.5 511.402C699 525.302 701.9 539.002 704.1 552.302C708 550.702 711.8 549.102 715.3 547.602C790.5 514.302 831.8 468.302 831.8 417.802Z" fill="#F9F4DA"/>
<path d="M719.4 279.102C719.3 279.002 719.1 279.002 719 278.902C714.8 277.102 710.3 275.202 705.7 273.302C706.5 268.102 707.1 263.302 707.6 258.602C716.9 173.002 696.1 110.802 648.9 83.4016C648.8 83.3016 648.7 83.3016 648.6 83.2016C601.2 55.8016 536.8 68.9016 467.2 119.802C463.4 122.602 459.5 125.502 455.4 128.802C451.4 125.602 447.4 122.602 443.6 119.802C374 68.8016 309.6 55.8016 262.2 83.2016C214.8 110.502 193.9 172.802 203.2 258.602C203.7 263.302 204.3 268.102 205.1 273.302C200.3 275.202 195.7 277.102 191.4 279.002C112.5 313.802 69 363.002 69 417.702C69 472.402 112.5 521.702 191.4 556.402C195.8 558.302 200.3 560.202 205.1 562.102C204.4 567.302 203.7 572.102 203.2 576.802C193.8 662.602 214.8 724.802 262.1 752.202C278.2 761.502 296.4 766.202 316.3 766.202C354.3 766.202 398.3 748.702 443.5 715.602C447.3 712.802 451.2 709.902 455.3 706.602C459.3 709.802 463.3 712.802 467.1 715.602C512.3 748.702 556.3 766.202 594.3 766.202C614.2 766.202 632.4 761.502 648.5 752.202C695.9 724.902 716.8 662.602 707.5 576.802C707.5 576.702 707.5 576.602 707.5 576.502C707 571.902 706.4 567.202 705.6 562.102C710.4 560.202 715 558.302 719.3 556.402C798.2 521.602 841.7 472.402 841.7 417.702C841.8 363.102 798.3 313.802 719.4 279.102ZM473.2 707.602C470.1 705.302 466.8 702.802 463.5 700.302C473.9 691.702 484.3 682.402 494.6 672.402C495.5 673.102 496.5 673.802 497.5 674.502C534 701.302 567.7 715.202 594.3 715.202C605.2 715.202 614.9 712.902 623.2 708.102C651.6 691.702 663.9 645.902 656.9 582.502C656.7 580.202 656.4 577.702 656 574.702C653.9 558.502 650.6 541.402 646.2 523.902C642.8 510.202 638.6 496.102 633.9 482.102C642.8 465.102 651.1 447.902 658.6 430.802C669.3 457.502 678.1 484.002 684.8 509.702C689.3 526.902 692.8 543.802 695.2 559.902C696.2 566.502 697 572.402 697.6 578.102C697.6 578.202 697.6 578.302 697.6 578.402C706.4 659.802 687.2 718.602 643.6 743.802C629.1 752.202 612.5 756.502 594.4 756.502C558.6 756.402 516.7 739.502 473.2 707.602ZM316.6 756.302C298.5 756.302 282 752.002 267.4 743.602C223.7 718.402 204.5 659.502 213.4 578.002C214 572.302 214.8 566.302 215.8 559.802C218.3 543.702 221.8 526.802 226.2 509.602C232.9 483.902 241.7 457.502 252.4 430.702C259.9 447.802 268.2 465.002 277.1 482.002C272.4 496.102 268.3 510.102 264.8 523.802C260.4 541.302 257.1 558.402 255 574.602C254.7 576.902 254.4 579.702 254.1 582.402C247.2 645.902 259.5 691.702 287.8 708.102C316.2 724.502 362 712.202 413.5 674.502C415.6 673.002 417.7 671.402 419.7 669.902C419.7 669.902 419.8 669.902 419.8 669.802C432.8 659.802 446 648.402 458.9 635.902C458.9 635.902 458.9 635.902 458.9 635.802C469.5 625.602 480 614.402 490.4 602.702C505.1 586.002 519.5 567.702 533.2 548.402C547.3 528.602 560.8 507.602 573.3 485.902C585.8 464.302 597.3 442.002 607.4 419.902C617.2 398.402 625.8 376.802 633 355.602C637.4 342.602 641.3 329.502 644.7 316.802C658.3 320.802 671.4 325.402 683.6 330.302C676.1 358.102 666.2 386.902 654 415.902C645.4 436.402 635.6 457.102 624.8 477.502C624.5 478.102 624.2 478.602 623.9 479.202C619 488.402 614 497.602 608.9 506.402C603.8 515.202 598.4 524.102 592.9 533.002C580.3 553.102 566.9 572.502 553.1 590.702C533.1 617.102 512.1 641.102 490.6 662.202C478 674.602 465.1 686.102 452.3 696.402C447.1 700.502 442.4 704.202 437.7 707.602C394.3 739.502 352.4 756.302 316.6 756.302ZM316.6 79.3016C352.3 79.3016 393.8 95.8016 437.8 128.002C440.9 130.302 444.2 132.802 447.5 135.302C445.1 137.302 442.6 139.402 440.2 141.402C439.9 141.602 439.7 141.902 439.4 142.102C438.3 143.102 437.2 144.002 436.1 145.002C435.9 145.202 435.6 145.402 435.4 145.602C430.5 149.902 425.6 154.402 420.8 159.002C420.5 159.202 420.3 159.502 420 159.702C418.9 160.802 417.8 161.802 416.7 162.902C416.6 163.002 416.6 163.002 416.5 163.102C415.6 162.402 414.6 161.702 413.6 161.002C377.2 134.302 343.8 120.202 316.9 120.202C305.9 120.202 296.1 122.602 287.9 127.402C259.6 143.702 247.3 189.402 254.1 252.702C254.1 252.802 254.1 252.902 254.1 253.002C254.2 254.102 254.3 255.302 254.5 256.502C240.8 260.402 227.5 264.702 214.8 269.502C214.2 265.302 213.7 261.302 213.3 257.402C204.4 175.802 223.6 117.002 267.3 91.8016C282 83.5016 298.6 79.3016 316.6 79.3016ZM643.4 91.8016C643.5 91.9016 643.6 91.9016 643.7 92.0016C687.4 117.202 706.6 176.102 697.7 257.602C697.3 261.502 696.8 265.502 696.2 269.702C696 269.602 695.8 269.502 695.5 269.502C694 268.902 692.4 268.402 690.8 267.802C690 267.502 689.3 267.302 688.5 267.002C687.4 266.602 686.3 266.202 685.2 265.802C684.4 265.502 683.6 265.302 682.9 265.002C681.7 264.602 680.5 264.202 679.3 263.802C678.7 263.602 678 263.402 677.4 263.202C673.5 261.902 669.6 260.702 665.7 259.502C665.4 259.402 665 259.302 664.7 259.202C662.9 258.702 661.2 258.102 659.4 257.602C659.1 257.502 658.8 257.402 658.5 257.302C657.8 257.102 657.2 256.902 656.6 256.702C656.7 255.602 656.9 254.402 657 253.202C663.9 189.702 651.6 143.902 623.3 127.502C615.1 122.702 605.3 120.302 594.3 120.302C567.5 120.302 534 134.402 497.6 161.102C495.5 162.702 493.3 164.302 491.3 165.802C478.3 175.702 465.2 187.102 452.2 199.702C441.6 209.902 431 221.102 420.7 232.902C406 249.602 391.6 267.902 377.9 287.202C363.8 307.002 350.3 328.002 337.8 349.702C327.2 368.102 317.3 386.902 308.3 405.702C300.8 388.502 294 371.302 288.2 354.402C292.8 345.802 297.5 337.302 302.2 329.202C307.3 320.402 312.6 311.502 318.2 302.702C330.8 282.702 344.2 263.202 358 245.002C358 245.002 358 245.002 358 244.902C378 218.602 399 194.502 420.4 173.402C433 161.002 445.9 149.502 458.7 139.202C463.9 135.002 468.7 131.402 473.3 128.002C539.2 79.6016 599.7 66.7016 643.4 91.8016ZM646.9 583.602C653.4 643.002 642.9 685.202 618.1 699.502C593.3 713.802 551.5 701.802 503.3 666.502C502.8 666.102 502.3 665.702 501.7 665.302C521.6 645.302 541.1 622.802 559.7 598.402C590.1 594.502 619.3 588.802 646.6 581.602C646.8 582.302 646.9 583.002 646.9 583.602ZM639.4 538.802C639.4 539.002 639.5 539.202 639.5 539.402C639.9 541.302 640.3 543.202 640.7 545.102C640.7 545.202 640.8 545.402 640.8 545.502C641.7 549.602 642.4 553.702 643.2 557.702C643.2 557.802 643.2 558.002 643.3 558.102C643.6 559.902 643.9 561.702 644.2 563.402C644.3 563.702 644.3 564.102 644.4 564.402C644.7 566.002 644.9 567.702 645.2 569.302C645.2 569.602 645.3 569.902 645.3 570.202C645.4 570.602 645.4 571.102 645.5 571.502C621.2 578.002 595.3 583.302 568.3 587.102C579.4 572.002 590.1 556.202 600.4 540.002C613.2 537.402 625.7 534.402 637.7 531.102C638.2 533.802 638.8 536.302 639.4 538.802ZM607.6 528.402C611.1 522.702 614.4 517.002 617.7 511.402C620.9 505.802 624.2 500.002 627.3 494.202C630.2 503.402 632.9 512.502 635.2 521.502C626.2 524.002 617 526.302 607.6 528.402ZM539.7 234.802C537 234.502 534.4 234.302 531.7 234.002C531.3 234.002 531 233.902 530.6 233.902C528.3 233.702 525.9 233.502 523.6 233.302C522.7 233.202 521.8 233.202 520.9 233.102C519 233.002 517.2 232.802 515.3 232.702C514.4 232.602 513.4 232.602 512.5 232.502C510.5 232.402 508.6 232.202 506.6 232.102C505.8 232.102 505 232.002 504.2 232.002C501.5 231.802 498.7 231.702 496 231.602C495.7 231.602 495.3 231.602 495 231.602C493 231.502 491 231.402 489 231.302C480.3 221.502 471.5 212.102 462.6 203.402C462.7 203.402 462.7 203.302 462.8 203.302C463.7 202.402 464.6 201.602 465.5 200.802C466.1 200.302 466.6 199.702 467.2 199.202C468 198.402 468.9 197.702 469.7 196.902C470.3 196.302 471 195.802 471.6 195.202C472.4 194.502 473.2 193.702 474 193.002C474.6 192.402 475.3 191.902 475.9 191.302C477.5 189.902 479 188.602 480.6 187.202C481.1 186.702 481.7 186.302 482.2 185.802C483.1 185.102 483.9 184.302 484.8 183.602C485.4 183.102 485.9 182.702 486.5 182.202C487.4 181.502 488.3 180.802 489.2 180.002C489.7 179.602 490.2 179.202 490.8 178.702C491.7 178.002 492.6 177.202 493.6 176.502C493.7 176.402 493.8 176.302 493.9 176.302C511.7 194.102 529.2 213.902 546 235.402C544.7 235.302 543.5 235.102 542.2 235.002C541.3 235.002 540.5 234.902 539.7 234.802ZM455.5 210.302C462.1 216.802 468.7 223.702 475.2 230.802C468.5 230.602 461.9 230.602 455.5 230.602C449.1 230.602 442.5 230.702 435.8 230.802C442.3 223.702 448.9 216.802 455.5 210.302ZM559.8 237.202C541.2 212.802 521.7 190.402 501.8 170.302C502.3 169.902 502.8 169.502 503.4 169.102C537.6 144.102 569.8 130.302 594.2 130.302C603.4 130.302 611.5 132.302 618.2 136.102C643 150.402 653.5 192.702 647 252.002C646.9 252.702 646.9 253.302 646.8 254.002C619.4 246.802 590.3 241.102 559.8 237.202ZM554.5 298.002C554.7 298.002 554.9 298.102 555.1 298.102C557.6 298.402 560.1 298.802 562.5 299.102C563 299.202 563.5 299.202 564 299.302C566.3 299.602 568.6 300.002 570.8 300.302C571.2 300.402 571.6 300.402 572 300.502C579.5 301.702 586.9 303.002 594.1 304.402C599.2 312.602 604.2 320.902 609 329.102C613.6 337.102 618.3 345.602 623 354.402C617.2 371.302 610.5 388.502 602.9 405.702C593.9 386.802 584.1 368.002 573.4 349.602C562.8 331.202 551.4 313.302 539.6 296.102C544.6 296.702 549.6 297.302 554.5 298.002ZM617.6 324.202C614.3 318.602 611 312.902 607.5 307.202C617 309.302 626.2 311.602 635.1 314.002C632.7 323.002 630.1 332.202 627.2 341.402C624.1 335.502 620.8 329.702 617.6 324.202ZM526.5 294.802C540 313.902 552.9 334.002 564.8 354.702C576.7 375.402 587.7 396.602 597.5 417.802C587.7 439.002 576.8 460.202 564.8 480.902C552.8 501.602 539.9 521.802 526.5 540.802C480.1 545.102 430.9 545.102 384.5 540.802C371 521.702 358.1 501.602 346.2 480.902C334.3 460.202 323.3 439.002 313.5 417.802C323.3 396.602 334.3 375.402 346.2 354.702C358.2 334.002 371.1 313.802 384.5 294.802C431 290.602 480 290.602 526.5 294.802ZM455.5 625.302C448.9 618.802 442.3 611.902 435.8 604.802C442.5 605.002 449.1 605.002 455.5 605.002C461.9 605.002 468.5 604.902 475.2 604.802C468.7 611.902 462.1 618.802 455.5 625.302ZM264.1 583.602C264.2 582.902 264.2 582.302 264.3 581.702C291.6 588.902 320.7 594.602 351.2 598.502C369.8 622.902 389.3 645.302 409.2 665.402C408.7 665.802 408.2 666.202 407.7 666.502C359.5 701.802 317.7 713.802 292.9 699.502C268.1 685.202 257.6 642.902 264.1 583.602ZM506 568.402C504.8 570.002 503.5 571.602 502.2 573.202C501.9 573.602 501.6 573.902 501.4 574.302C500.2 575.902 498.9 577.402 497.7 578.902C497.5 579.102 497.3 579.402 497.1 579.602C493.1 584.502 489 589.402 484.9 594.102C484.7 594.302 484.6 594.502 484.4 594.602C474.6 594.902 464.9 595.102 455.5 595.102C446.2 595.102 436.5 594.902 426.6 594.602C425.5 593.402 424.5 592.202 423.4 591.002C423 590.602 422.7 590.202 422.3 589.802C420.7 587.902 419 585.902 417.4 584.002C416.9 583.502 416.5 582.902 416 582.302C414.8 580.902 413.6 579.402 412.4 577.902C411.8 577.202 411.3 576.502 410.7 575.802C409.6 574.402 408.5 573.102 407.4 571.702C406.8 571.002 406.3 570.302 405.7 569.602C404.5 568.102 403.3 566.502 402.1 565.002C401.7 564.502 401.3 563.902 400.9 563.402C399.3 561.302 397.7 559.202 396.1 557.102C395.8 556.702 395.5 556.302 395.3 556.002C394.3 554.602 393.2 553.202 392.2 551.802C413 553.502 434.2 554.302 455.5 554.302C476.8 554.302 498 553.502 518.8 551.802C514.7 557.302 510.6 562.802 506.4 568.102C506.3 568.002 506.1 568.202 506 568.402ZM448.3 632.302C438 642.102 427.6 651.102 417.2 659.202C396.8 638.802 376.9 615.802 357.8 590.802C343.9 572.502 330.5 553.102 318 533.102C312.5 524.302 307.1 515.402 302 506.502C297 497.902 292 488.802 287 479.302C275.9 458.302 265.8 437.002 256.9 415.902C244.7 386.902 234.8 358.102 227.3 330.302C227.5 330.202 227.7 330.102 227.9 330.102C228.8 329.702 229.7 329.402 230.6 329.002C231.4 328.702 232.3 328.402 233.1 328.002C234 327.702 234.9 327.302 235.8 327.002C236.7 326.702 237.6 326.302 238.4 326.002C239.3 325.702 240.2 325.302 241.1 325.002C242.2 324.602 243.4 324.202 244.5 323.802C245.8 323.302 247.1 322.902 248.4 322.402C249.4 322.002 250.5 321.702 251.6 321.302C252.5 321.002 253.4 320.702 254.3 320.402C255.3 320.102 256.2 319.802 257.2 319.502C258.1 319.202 259 318.902 260 318.602C261 318.302 262 318.002 263 317.702C263.9 317.402 264.8 317.102 265.7 316.902C265.9 316.802 266 316.802 266.2 316.702C269.5 329.502 273.5 342.502 277.9 355.502C285.1 376.602 293.7 398.302 303.5 419.802C313.6 442.002 325.1 464.202 337.6 485.802C350.1 507.402 363.6 528.502 377.7 548.302C391.4 567.602 405.8 585.902 420.5 602.602C420.5 602.602 420.5 602.702 420.6 602.702C429.7 613.202 439 623.102 448.3 632.302ZM273.4 531.302C285.4 534.602 297.9 537.602 310.8 540.202C310.9 540.402 311 540.502 311.1 540.702C313.3 544.202 315.6 547.702 317.9 551.202C318.1 551.602 318.4 552.002 318.6 552.302C319.5 553.602 320.4 555.002 321.2 556.302C321.8 557.202 322.5 558.202 323.1 559.102C323.9 560.302 324.7 561.502 325.6 562.702C326.3 563.802 327 564.802 327.8 565.902C328.6 567.002 329.4 568.202 330.2 569.302C331 570.502 331.8 571.602 332.6 572.802C333.8 574.502 335 576.202 336.2 577.902C337.1 579.202 338 580.502 338.9 581.702C339.8 582.902 340.6 584.102 341.5 585.202C342 585.802 342.4 586.502 342.9 587.102C315.9 583.302 290 578.002 265.7 571.502C267.5 558.702 270.1 545.102 273.4 531.302ZM275.8 314.102C284.8 311.602 294 309.402 303.4 307.302C299.9 313.002 296.6 318.602 293.3 324.302C290.1 329.902 286.8 335.702 283.7 341.502C280.8 332.202 278.2 323.102 275.8 314.102ZM246.9 417.802C235.1 446.102 225.4 474.202 218 501.502C217.4 501.202 216.8 501.002 216.2 500.702C161.5 476.602 130.2 446.402 130.2 417.802C130.2 389.202 161.5 359.002 216.2 334.902C216.8 334.602 217.4 334.402 218 334.102C225.4 361.402 235.1 389.502 246.9 417.802ZM293.4 511.402C296.7 517.102 300 522.702 303.5 528.402C294 526.302 284.8 524.002 275.9 521.602C278.3 512.602 280.9 503.402 283.8 494.302C286.9 500.102 290.2 505.902 293.4 511.402ZM264.3 254.002C264.2 253.402 264.2 252.902 264.1 252.402C264.1 252.302 264.1 252.202 264.1 252.002C257.6 192.602 268.1 150.402 292.9 136.102C299.6 132.202 307.7 130.302 316.9 130.302C341.2 130.302 373.5 144.102 407.7 169.102C408.2 169.502 408.7 169.902 409.3 170.302C389.4 190.302 369.9 212.802 351.3 237.202C320.7 241.102 291.5 246.802 264.3 254.002ZM693 334.102C693.6 334.402 694.2 334.602 694.8 334.902C749.5 359.002 780.8 389.202 780.8 417.802C780.8 446.402 749.5 476.602 694.8 500.702C694.2 501.002 693.6 501.202 693 501.502C685.6 474.202 675.9 446.102 664.1 417.802C675.9 389.502 685.6 361.402 693 334.102ZM212.6 281.202C227.9 275.302 244.2 269.902 261.1 265.202C261.2 265.202 261.3 265.202 261.4 265.102C286.9 258.002 314.3 252.402 342.8 248.302C331.7 263.402 320.9 279.202 310.7 295.402C296.2 298.402 281.9 301.802 268.3 305.702C251 310.602 234.5 316.302 219.4 322.602C217.2 323.502 214.7 324.602 212.1 325.702C153.7 351.402 120.1 385.002 120.1 417.702C120.1 450.502 153.6 484.002 212.1 509.802C213.2 510.302 214.3 510.702 215.3 511.202C211.8 525.102 208.9 538.802 206.7 552.102C202.8 550.502 199 548.902 195.5 547.402C120.4 514.302 79.1 468.302 79.1 417.802C79.1 367.302 120.5 321.302 195.5 288.202C200.9 285.902 206.6 283.502 212.6 281.202ZM704.2 552.102C702 538.902 699.1 525.202 695.6 511.202C696.7 510.702 697.8 510.302 698.9 509.802C757.3 484.102 790.9 450.502 790.9 417.802C790.9 385.002 757.4 351.502 698.9 325.702C696.5 324.602 694 323.602 691.7 322.602C676.6 316.302 660.1 310.602 642.8 305.702C628.7 301.702 613.7 298.102 598.3 295.002C576.4 290.602 553.4 287.302 529.8 285.002C484.9 280.702 437.5 280.402 392.3 284.002C403.4 268.802 415 254.402 426.7 241.002C436.5 240.702 446.2 240.502 455.6 240.502C465.6 240.502 476.1 240.702 486.6 241.102C510.3 242.002 533.8 243.902 556.5 246.702C589.3 250.802 620.7 257.002 649.7 265.002C666.8 269.702 683.2 275.102 698.4 281.102C704.4 283.402 710.1 285.802 715.4 288.102C715.5 288.202 715.6 288.202 715.8 288.202C790.7 321.302 831.9 367.202 831.9 417.602C831.9 468.102 790.5 514.102 715.5 547.202C711.8 549.002 708.1 550.502 704.2 552.102Z" fill="#231F20"/>
<path d="M420.6 602.802C405.8 586.002 391.4 567.702 377.7 548.402C363.5 528.502 350 507.502 337.6 485.902C325.1 464.302 313.6 442.102 303.5 419.902C293.7 398.402 285.1 376.802 277.9 355.602C273.5 342.602 269.6 329.502 266.2 316.802C266 316.902 265.9 316.902 265.7 317.002C264.8 317.302 263.9 317.602 263 317.802C262 318.102 261 318.402 260 318.702C259.1 319.002 258.2 319.302 257.2 319.602C256.2 319.902 255.3 320.202 254.3 320.502C253.4 320.802 252.5 321.102 251.6 321.402C250.5 321.802 249.5 322.102 248.4 322.502C247.1 322.902 245.8 323.402 244.5 323.902C243.4 324.302 242.2 324.702 241.1 325.102C240.2 325.402 239.3 325.802 238.4 326.102C237.5 326.402 236.6 326.702 235.8 327.102C234.9 327.402 234 327.802 233.1 328.102C232.3 328.402 231.4 328.702 230.6 329.102C229.7 329.502 228.8 329.802 227.9 330.202C227.7 330.302 227.5 330.402 227.3 330.402C234.8 358.202 244.7 387.002 256.9 416.002C265.8 437.102 275.9 458.402 287 479.402C292 488.802 297 498.002 302 506.602C307.1 515.502 312.5 524.402 318 533.202C330.6 553.202 344 572.702 357.8 590.902C376.8 615.902 396.8 638.902 417.2 659.302C427.5 651.202 438 642.202 448.3 632.402C439 623.102 429.7 613.202 420.6 602.802Z" fill="#F9F4DA"/>
<path d="M697.7 578.302C697.7 578.202 697.7 578.102 697.7 578.002C697.1 572.302 696.3 566.302 695.3 559.802C692.8 543.702 689.3 526.802 684.9 509.602C678.2 483.902 669.4 457.502 658.7 430.702C651.2 447.802 642.9 465.002 634 482.002C638.7 496.102 642.8 510.102 646.3 523.802C650.7 541.302 654 558.402 656.1 574.602C656.5 577.702 656.8 580.202 657 582.402C663.9 645.902 651.6 691.702 623.3 708.002C615.1 712.802 605.3 715.102 594.4 715.102C567.8 715.102 534.1 701.202 497.6 674.402C496.6 673.702 495.7 673.002 494.7 672.302C484.4 682.302 474 691.602 463.6 700.202C466.9 702.802 470.2 705.202 473.3 707.502C516.8 739.402 558.7 756.202 594.6 756.202C612.7 756.202 629.2 751.902 643.8 743.502C687.3 718.502 706.5 659.802 697.7 578.302Z" fill="#F9F4DA"/>
<path d="M79.2 417.802C79.2 468.302 120.6 514.302 195.6 547.402C199.1 549.002 202.9 550.502 206.8 552.102C209 538.902 211.9 525.202 215.4 511.202C214.3 510.702 213.2 510.302 212.2 509.802C153.7 484.002 120.2 450.502 120.2 417.702C120.2 384.902 153.7 351.402 212.2 325.702C214.8 324.602 217.3 323.502 219.5 322.602C234.6 316.302 251.1 310.602 268.4 305.702C282 301.802 296.2 298.402 310.8 295.402C321 279.202 331.8 263.402 342.9 248.302C314.3 252.402 287 258.002 261.5 265.102C261.4 265.102 261.3 265.102 261.2 265.202C244.3 269.902 228 275.302 212.7 281.202C206.7 283.502 201 285.902 195.7 288.202C120.6 321.302 79.2 367.302 79.2 417.802Z" fill="#F9F4DA"/>
</svg>
