<svg width="799" height="784" viewBox="0 0 799 784" fill="none" xmlns="http://www.w3.org/2000/svg">
<path d="M507.2 522.8C506.1 521.9 505.7 521.8 505.2 522.1C503.5 525.3 502.5 530.1 502.4 536.4C502.6 539.1 503.6 541.3 505.7 543.3C506.2 543.8 508.3 545.2 515.9 547.9C512 544 509.7 538.5 509 531.4C509 531.3 509 531.1 509 531C509 525 507.9 523.4 507.8 523.2C507.5 523 507.3 522.9 507.2 522.8Z" fill="#7B5EA7"/>
<path d="M266.4 692.3C270.2 696.5 275.2 698.5 281.6 698.5C275.1 698.5 270.2 696.5 266.4 692.3Z" fill="#7B5EA7"/>
<path d="M483.8 230.1C484.2 231.3 484.7 232.4 485.1 233.6C485.3 234.1 485.5 234.6 485.6 235.1C486.2 236.8 486.8 238.5 487.4 240.2C487.5 240.4 487.5 240.6 487.6 240.8C488.1 242.3 488.6 243.9 489.2 245.4C488.7 243.9 488.2 242.3 487.6 240.8C487.5 240.6 487.5 240.4 487.4 240.2C486.8 238.5 486.2 236.8 485.6 235.1C485.4 234.6 485.2 234.1 485.1 233.6C484.7 232.4 484.2 231.2 483.8 230.1Z" fill="#7B5EA7"/>
<path d="M285.5 311.2C287.8 309.7 290.1 308.2 292.5 306.8C300.7 301.6 309.1 296.6 317.2 291.9C325.3 287.2 333.8 282.5 342.4 277.9C359.4 268.9 376.7 260.6 393.9 253.1C396.4 252 398.8 251 401.3 250C428.3 238.7 455 229.4 480.8 222.5C480.8 222.6 480.9 222.7 480.9 222.8C480.9 222.7 480.8 222.6 480.8 222.4C454.9 229.3 428.2 238.6 401.3 249.9C398.8 250.9 396.4 252 393.9 253.1C376.7 260.6 359.4 268.9 342.4 277.9C333.8 282.5 325.3 287.1 317.2 291.9C309.1 296.6 300.7 301.6 292.5 306.8C290.1 308.3 287.8 309.7 285.5 311.2C269.3 321.6 253.6 332.6 238.8 343.8C215.5 361.5 194.1 380 175.2 398.9C194.1 380 215.5 361.4 238.8 343.8C253.6 332.6 269.3 321.6 285.5 311.2Z" fill="#7B5EA7"/>
<path d="M493.3 258.6C493.3 258.5 493.2 258.4 493.2 258.3C493.3 258.4 493.3 258.5 493.3 258.6Z" fill="#7B5EA7"/>
<path d="M312.5 283.9C317.7 280.9 323.1 277.9 328.5 274.9C319.9 272.2 311.4 269.7 303.1 267.5C300.8 275.8 298.7 284.4 296.8 293.2C302 290 307.3 286.9 312.5 283.9Z" fill="#7B5EA7"/>
<path d="M399.5 132.3C372.9 132.3 344.8 161.4 322.5 212.2C322.3 212.7 322 213.3 321.8 213.9C347.1 220.7 373.2 229.8 399.6 240.7C425.9 229.7 452 220.7 477.4 213.9C477.2 213.3 476.9 212.8 476.7 212.2C454.1 161.4 426.1 132.3 399.5 132.3Z" fill="#7B5EA7"/>
<path d="M486.5 283.9C491.7 286.9 497 290 502.3 293.3C500.4 284.5 498.2 275.9 496 267.6C487.7 269.8 479.2 272.2 470.6 275C475.9 277.9 481.2 280.9 486.5 283.9Z" fill="#7B5EA7"/>
<path d="M246.7 326.4C248.7 324.9 250.8 323.5 252.8 322C253.1 321.8 253.3 321.6 253.6 321.4C255.4 320.1 257.2 318.9 259 317.6C259.7 317.1 260.4 316.7 261 316.2C262.4 315.2 263.9 314.2 265.3 313.3C266 312.8 266.8 312.3 267.5 311.8C269 310.8 270.5 309.8 272 308.8C272.6 308.4 273.2 308 273.9 307.6C276 306.2 278.1 304.8 280.3 303.5C280.6 303.3 280.9 303.1 281.2 302.9C282.7 301.9 284.3 300.9 285.8 300C284.3 301 282.7 302 281.2 302.9C280.9 303.1 280.6 303.3 280.3 303.5C278.2 304.9 276 306.3 273.9 307.7C273.3 308.1 272.7 308.5 272 308.9C270.5 309.9 269 310.9 267.5 311.9C266.8 312.4 266 312.9 265.3 313.4C263.9 314.4 262.4 315.4 261 316.3C260.3 316.8 259.6 317.2 259 317.7C257.2 318.9 255.4 320.2 253.6 321.5C253.3 321.7 253.1 321.9 252.8 322.1C250.8 323.5 248.7 324.9 246.7 326.4C246.1 326.8 245.5 327.2 244.9 327.7C243.9 328.4 243 329.1 242 329.8C245.6 304.7 250.4 280.7 256.5 258.1C250.4 280.7 245.6 304.8 242 329.8C243 329.1 243.9 328.4 244.9 327.7C245.5 327.3 246.1 326.9 246.7 326.4Z" fill="#7B5EA7"/>
<path d="M245.4 256.7C190.2 250.7 151 260.4 137.7 283.5C124.4 306.5 135.6 345.4 168.4 390.2C168.7 390.7 169.1 391.2 169.5 391.7C188.1 373.2 209 355.1 231.6 337.8C235.2 309.5 240.5 282.4 247.2 257.1C246.6 256.8 246 256.7 245.4 256.7Z" fill="#7B5EA7"/>
<path d="M488.1 625.7C488.2 632.4 490.1 637.7 493.9 641.2C490.1 637.7 488.1 632.5 488.1 625.7C487.3 618.8 484.8 615.5 481.7 613.8C484.7 615.5 487.3 618.8 488.1 625.7Z" fill="#7B5EA7"/>
<path d="M498.1 625.4C498.1 629.3 499 632.2 500.7 633.8C501.4 634.4 501.8 634.5 501.8 634.5C501.8 634.5 502 634.5 502.3 634.2C504.3 631 505.4 626.3 505.6 620.1C505.4 617.4 504.4 615.2 502.3 613.2C501.8 612.7 499.5 611.1 490.4 608C494.6 611.9 497.2 617.6 498 625C498.1 625 498.1 625.2 498.1 625.4Z" fill="#7B5EA7"/>
<path d="M573 471.7C576.3 474.4 579 477.5 581.3 481C585.9 488 588.7 498 589.7 510.7V530.8C588.4 541.8 582.6 543.8 577.5 544.2H531C528.1 544 525.8 543.2 524 542C525.8 543.3 528.1 544 531 544.2H577.6C582.6 543.8 588.5 541.8 589.8 530.8V510.7C588.8 498 586 488 581.4 481C579.1 477.5 576.3 474.4 573 471.7Z" fill="#7B5EA7"/>
<path d="M497.8 515.2C497.4 515.5 497.1 515.9 496.9 516.3C494 521.1 492.5 527.7 492.3 536.3C492.3 536.4 492.3 536.6 492.3 536.7C492.6 542 494.7 546.7 498.7 550.5C499 550.8 499.4 551.1 499.9 551.5C499.4 551.2 499.1 550.8 498.7 550.5C494.7 546.7 492.6 542 492.3 536.7C492.3 536.6 492.3 536.5 492.3 536.3C492.5 527.7 494 521.1 496.9 516.3C497.2 515.9 497.5 515.5 497.8 515.2C502.1 511.3 507.4 510.9 512.2 514.1C507.4 510.9 502.1 511.2 497.8 515.2Z" fill="#7B5EA7"/>
<path d="M313.9 208.5C313.5 209.5 313.1 210.5 312.6 211.5C313.1 210.4 313.5 209.4 313.9 208.5C337.8 154.2 369 123.1 399.4 123.1C369 123 337.9 154.2 313.9 208.5Z" fill="#7B5EA7"/>
<path d="M519.9 193.1C522.1 198 524.3 203.3 526.4 208.9C528.5 214.2 530.5 219.7 532.4 225.3C534.3 230.9 536.2 236.6 537.9 242.4C539.1 246.3 540.2 250.2 541.3 254.2C547.9 277.9 553.1 303.3 556.9 329.8C553.1 303.3 547.9 277.9 541.3 254.1C540.2 250.1 539.1 246.2 537.9 242.3C536.1 236.5 534.3 230.8 532.4 225.2C530.5 219.6 528.5 214.1 526.4 208.8C524.2 203.3 522 198 519.9 193.1C489.2 123.3 446.4 84.9 399.5 84.9C446.4 84.9 489.1 123.3 519.9 193.1Z" fill="#7B5EA7"/>
<path d="M473.2 592.3C496 598.5 504.2 602.2 507.7 604.7C504.2 602.2 496.1 598.6 473.2 592.3Z" fill="#7B5EA7"/>
<path d="M165.3 401.4C169.9 407.4 174.9 413.5 180.1 419.6C181.4 421.1 182.7 422.6 184.1 424.1H134.7H184.2C182.8 422.6 181.5 421.1 180.2 419.6C174.9 413.5 169.9 407.5 165.3 401.4Z" fill="#7B5EA7"/>
<path d="M548.3 244.6C547.9 243.3 547.6 242.1 547.2 240.8C547 240.2 546.8 239.6 546.7 239C546.2 237.4 545.7 235.8 545.2 234.2C545.1 234 545.1 233.8 545 233.7C544.4 231.9 543.9 230.1 543.3 228.4C543.1 227.9 542.9 227.4 542.8 226.8C542.4 225.6 542 224.3 541.5 223C541.3 222.4 541.1 221.8 540.9 221.2C540.5 220 540 218.8 539.6 217.6C539.4 217.1 539.2 216.5 539 216C538.4 214.3 537.8 212.7 537.2 211V210.9C541.1 210.4 544.8 209.9 548.4 209.5C586.3 205.4 618.9 207.8 645 216.2C618.9 207.7 586.3 205.3 548.4 209.4C544.8 209.8 541.1 210.3 537.2 210.8V210.9C537.8 212.6 538.4 214.2 539 215.9C539.2 216.4 539.4 217 539.6 217.5C540 218.7 540.5 219.9 540.9 221.1C541.1 221.7 541.3 222.3 541.5 222.9C541.9 224.1 542.3 225.4 542.8 226.7C543 227.2 543.2 227.7 543.3 228.3C543.9 230.1 544.5 231.8 545 233.6C545.1 233.8 545.1 234 545.2 234.1C545.7 235.7 546.2 237.3 546.7 238.9C546.9 239.5 547.1 240.1 547.2 240.7C547.5 242.1 547.9 243.4 548.3 244.6C548.5 245.3 548.7 246 548.9 246.7C548.9 246.6 548.9 246.6 548.8 246.5C548.7 245.9 548.5 245.3 548.3 244.6Z" fill="#7B5EA7"/>
<path d="M595.1 424.2C587.6 416.8 579.6 409.4 571.4 402.1C565.9 397.3 560.2 392.5 554.4 387.8C543.7 379.1 532.5 370.6 520.9 362.3C502.5 349.2 482.9 336.6 462.8 325C445.7 315.1 428.2 305.9 410.7 297.6C412.2 297 413.7 296.3 415.1 295.7C415.5 295.5 416 295.3 416.4 295.1C418.7 294.1 420.9 293.2 423.2 292.2C423.8 291.9 424.4 291.7 425.1 291.4C426.7 290.7 428.4 290.1 430.1 289.4C430.9 289.1 431.7 288.8 432.5 288.5C434 287.9 435.5 287.3 437 286.7C437.8 286.4 438.6 286.1 439.4 285.8C441.1 285.2 442.7 284.5 444.4 283.9C445 283.7 445.6 283.4 446.2 283.2C448.4 282.4 450.7 281.6 452.9 280.8C453.4 280.6 453.8 280.5 454.3 280.3C455.7 279.8 457.1 279.3 458.5 278.9C457.1 279.4 455.7 279.9 454.3 280.4C453.8 280.6 453.4 280.7 452.9 280.9C450.7 281.7 448.4 282.5 446.2 283.3C445.6 283.5 445 283.8 444.4 284C442.7 284.6 441.1 285.2 439.4 285.9C438.6 286.2 437.8 286.5 437 286.8C435.5 287.4 434 288 432.5 288.6C431.7 288.9 430.9 289.2 430.1 289.5C428.4 290.2 426.8 290.8 425.1 291.5C424.5 291.8 423.9 292 423.3 292.3C421 293.2 418.8 294.2 416.5 295.2C416.1 295.4 415.6 295.6 415.2 295.8C413.7 296.4 412.2 297.1 410.8 297.7C428.3 306 445.8 315.2 462.9 325.1C483 336.7 502.6 349.3 521 362.4C532.6 370.7 543.8 379.2 554.5 387.9C560.3 392.6 566 397.4 571.5 402.2C579.6 409.3 587.5 416.7 595.1 424.2Z" fill="#7B5EA7"/>
<path d="M675.9 305.7C675.9 295.5 673.7 286.4 669.2 278.7C654 252.3 611.4 240.9 552.4 247.4C551.7 247.5 551 247.6 550.2 247.6C551 247.5 551.7 247.4 552.4 247.4C611.4 241 654 252.4 669.2 278.7C673.7 286.5 675.9 295.5 675.9 305.7C675.9 330.7 662.8 361.7 638 395.6C637.6 396.2 637.2 396.7 636.7 397.3C637.1 396.7 637.6 396.1 638 395.5C662.8 361.7 675.9 330.7 675.9 305.7Z" fill="#7B5EA7"/>
<path d="M322.9 695C320.9 696.4 318.7 697.4 316.1 697.9C318.6 697.4 320.9 696.4 322.9 695Z" fill="#7B5EA7"/>
<path d="M767.1 222.3C767.1 222.3 767.1 222.2 767 222.2C746.4 186.6 712.9 160.2 670.1 145.8C642.6 136.6 611.2 132.2 576.7 132.8C574.8 132.8 573.1 131.8 572.2 130.2C555.5 100 536 75 514.2 55.8C480.3 25.9 440.6 10.1 399.5 10.1C358.4 10.1 318.7 25.9 284.8 55.8C263.1 75 243.6 100 226.8 130.2C225.9 131.8 224.2 132.8 222.3 132.8C187.8 132.2 156.4 136.6 128.9 145.8C86 160.2 52.5 186.7 31.9 222.3C17.5 247.3 10.1 275.3 10.1 305.4C10.1 354.7 30.7 409 69.8 462.3C72.2 465.6 74.7 468.8 77.1 471.9C89.5 487.9 108.9 498 129.2 499C131.7 499.1 133.8 501.1 133.9 503.6C135.2 522.2 142 539.8 153.7 554.4C161.6 564.4 171.3 572.3 182.4 578C184.1 578.9 185.1 580.6 185.1 582.5V678.7C185.1 702.4 193.8 724.6 210.4 742.9C228.5 763 253.8 774 281.7 774H310.8C338 774 362.9 763.4 380.9 744.1C381.9 743.1 383.2 742.5 384.6 742.5C385.7 742.5 386.8 742.9 387.8 743.6C396 750.3 405.1 755.9 414.9 760.4C432.3 768.4 452 772.9 473.5 774C474.6 774.1 475.8 774.1 476.9 774.1H524C553.5 773.7 581.8 763.3 605.5 744C627.1 726.5 643 704.3 652.6 677.9C660.7 655.9 664.8 635 664.8 615.8C664.8 614.4 664.8 613 664.7 611.5C664.7 611.4 664.7 611.3 664.7 611.2C663.8 597.4 661.2 584.3 656.8 572.4C656.3 571.2 656.4 569.8 656.9 568.6C661.1 559.3 663.8 549.2 665 538.5C665.3 536 665.4 533.5 665.4 531V510.4C665.4 508.8 665.3 507.1 665.2 505.3C665.2 505.3 665.2 505.3 665.2 505.2V505.1L665.1 504.3C665 503 665.5 501.6 666.4 500.6C667.3 499.6 668.6 499 669.9 498.9C690.1 497.9 709.6 487.8 722 471.9C724.5 468.7 726.9 465.4 729.3 462.2C768.9 408.1 789 355.3 789 305.3C788.8 275.3 781.5 247.4 767.1 222.3ZM393.2 497.1C393.2 503.3 391.2 508.9 387.4 513.7C383.4 518.7 378.1 521.6 371.6 522.1C371.5 522.1 371.3 522.1 371.2 522.1H341.7V678.7C341.7 686 338.9 692.8 333.3 699C327.6 705.3 320 708.5 310.7 708.5H281.6C272.3 708.5 264.7 705.3 259 699C253.4 692.8 250.6 686 250.6 678.7V522.1H221.1C221 522.1 220.8 522.1 220.7 522.1C214.2 521.6 208.9 518.8 204.9 513.7C201.1 508.9 199.1 503.3 199.1 497.1V472.9C199.1 466.7 201 461.1 204.9 456.3C208.9 451.3 214.2 448.4 220.7 447.9C220.8 447.9 221 447.9 221.1 447.9H371.2C371.3 447.9 371.5 447.9 371.6 447.9C378.1 448.4 383.4 451.2 387.4 456.3C391.2 461.1 393.2 466.7 393.2 472.9V497.1ZM599.8 531C599.8 531.2 599.8 531.4 599.8 531.5C598.3 545.1 590.7 553.1 578.3 554.1C578.2 554.1 578 554.1 577.9 554.1H536.3C536.7 554.2 537.1 554.3 537.5 554.4C557.7 559.9 572.9 567.1 582.5 575.6C592.5 584.6 598.2 597.9 599.3 615.4C599.3 615.5 599.3 615.6 599.3 615.7C599.3 627.1 596.5 640.4 591.1 655.2C585.6 670.3 576.5 683 564.3 692.9C551.8 703 537.9 708.2 522.9 708.4H476.8C476.7 708.4 476.6 708.4 476.6 708.4C463.5 707.8 451.9 705.2 442.1 700.7C432 696.1 424 689.4 418.4 680.9C412.8 672.4 409.4 660.8 408.4 646.3C408.4 646.2 408.4 646.1 408.4 645.9V625.4C408.4 625.2 408.4 625 408.4 624.9C409.9 611.3 417.5 603.3 429.9 602.3C430 602.3 430.2 602.3 430.3 602.3H471.9C471.5 602.2 471.1 602.1 470.7 602C450.2 596.4 435.5 589.5 425.7 580.8C415.6 571.8 410.1 558.5 409.2 541C409.2 540.9 409.2 540.9 409.2 540.8C409 529.3 411.6 516 417.1 501.2C422.6 486.1 431.7 473.4 443.9 463.5C456.3 453.4 470.4 448.2 485.6 448H531.1C531.2 448 531.3 448 531.3 448C544.6 448.6 556.3 451.2 566.1 455.7C576.2 460.3 584.2 467 589.8 475.5C595.4 484 598.8 495.6 599.8 510.1C599.8 510.2 599.8 510.3 599.8 510.5V531ZM676.3 423.6C674.3 426.3 672.3 429 670.1 431.8C669.2 432.9 667.9 433.6 666.5 433.6H593.3C592.1 433.6 590.9 433.1 590.1 432.2C587.4 429.5 584.6 426.8 581.8 424.1C579 421.4 576.2 418.8 573.3 416.2C573.4 418.9 573.4 421.5 573.5 424.1C573.5 425.7 573.5 427.3 573.5 428.9C573.5 431.4 571.4 433.5 568.9 433.5H521.4C518.9 433.5 516.8 431.5 516.8 428.9C516.8 427.3 516.8 425.7 516.7 424.1C516.4 405.4 515.5 386.7 513.8 368.5C496.1 356 477.4 344 458.2 332.9C438.9 321.8 419.2 311.6 399.6 302.5C379.9 311.6 360.2 321.8 341 332.9C321.8 344 303 356 285.4 368.5C283.7 386.7 282.8 405.3 282.5 424.1C282.5 425.7 282.5 427.3 282.4 429C282.4 431.5 280.3 433.6 277.8 433.6H230.3C227.8 433.6 225.7 431.5 225.7 429C225.7 427.4 225.7 425.8 225.7 424.2C225.7 421.6 225.8 418.9 225.8 416.3C222.9 418.9 220.1 421.6 217.3 424.2C214.5 426.9 211.7 429.6 209 432.3C208.1 433.2 207 433.6 205.8 433.6H132.6C131.2 433.6 129.8 432.9 129 431.8C126.8 429 124.8 426.2 122.8 423.6C92 381.6 75.8 340.7 75.8 305.4C75.8 286.9 80.2 270 88.8 255.1C114.2 211.1 172.1 191.6 251.8 200.3C256.1 200.8 260.7 201.4 265.4 202.1C267.2 197.7 268.9 193.4 270.7 189.4C303 116 348.8 75.6 399.6 75.6C450.4 75.6 496.2 116 528.5 189.4C530.3 193.4 532 197.7 533.8 202.1C538.5 201.4 543.1 200.8 547.5 200.3C627.2 191.6 685.1 211.1 710.5 255.1C719.2 270.2 723.5 287.1 723.5 305.4C723.3 340.6 707.5 381.1 676.3 423.6Z" fill="#7B5EA7"/>
<path d="M661.8 427C661.8 427 661.9 427.1 661.9 427.2C661.9 427.1 661.9 427 661.8 427Z" fill="#7B5EA7"/>
<path d="M658.5 423C658.1 422.6 657.7 422.1 657.4 421.7C656.6 420.7 655.8 419.8 654.9 418.8C654.5 418.3 654.1 417.8 653.6 417.3C652.7 416.3 651.9 415.3 651 414.3C650.6 413.9 650.3 413.5 649.9 413.1C648.7 411.7 647.4 410.3 646.1 409C646 408.9 645.9 408.7 645.7 408.6C644.6 407.4 643.4 406.1 642.2 404.9C641.8 404.5 641.4 404 641 403.6C640.1 402.6 639.2 401.7 638.3 400.7C637.8 400.2 637.4 399.8 636.9 399.3C636.9 399.2 636.8 399.2 636.8 399.2C637.3 399.7 637.8 400.2 638.3 400.7C639.2 401.7 640.1 402.6 641 403.6C641.4 404 641.8 404.5 642.2 404.9C643.4 406.1 644.5 407.4 645.7 408.6C645.8 408.7 645.9 408.9 646.1 409C647.4 410.4 648.6 411.8 649.9 413.2C650.3 413.6 650.6 414 651 414.4C651.9 415.4 652.8 416.4 653.6 417.4C654 417.9 654.4 418.4 654.9 418.9C655.7 419.9 656.6 420.8 657.4 421.8C657.7 422.1 658.1 422.5 658.5 423C659 423.6 659.4 424.1 659.9 424.6C659.8 424.5 659.7 424.3 659.5 424.2C659.1 423.8 658.8 423.4 658.5 423Z" fill="#7B5EA7"/>
<path d="M523.7 375.7C525 391.6 525.7 407.8 525.9 424.1C525.7 407.9 525 391.7 523.7 375.7Z" fill="#7B5EA7"/>
<path d="M212.8 507.4C210.4 504.4 209.2 501 209.2 497.1V472.9C209.2 469 210.4 465.6 212.8 462.5C215 459.7 217.8 458.2 221.3 457.9C217.7 458.2 215 459.7 212.7 462.5C210.3 465.5 209.1 468.9 209.1 472.9V497.1C209.2 501 210.4 504.4 212.8 507.4C215 510.2 217.8 511.7 221.3 512C217.8 511.7 215 510.3 212.8 507.4Z" fill="#7B5EA7"/>
<path d="M589.1 615.9C589.1 626.1 586.5 638.2 581.5 651.9C576.6 665.3 568.6 676.5 557.8 685.3C547 694 535.5 698.4 522.7 698.6H476.8C465 698 454.7 695.7 446.1 691.8C444 690.8 442 689.8 440.2 688.6C442.1 689.8 444.1 690.8 446.2 691.8C454.8 695.7 465.2 698 476.9 698.6H522.8C535.6 698.4 547.1 694.1 557.9 685.3C568.7 676.5 576.7 665.3 581.6 651.9C586.6 638.2 589.1 626.1 589.1 615.9C588.2 601.3 583.7 590.3 575.7 583.2C583.7 590.2 588.2 601.3 589.1 615.9Z" fill="#7B5EA7"/>
<path d="M382.2 248.2C379.9 249.2 377.7 250.3 375.4 251.3C375.1 251.4 374.8 251.6 374.5 251.7C372.5 252.6 370.5 253.6 368.5 254.5C367.8 254.8 367 255.2 366.3 255.5C364.7 256.3 363.1 257 361.6 257.8C360.8 258.2 360 258.6 359.2 258.9C357.6 259.7 355.9 260.5 354.3 261.3C353.6 261.6 353 262 352.3 262.3C350 263.4 347.8 264.6 345.5 265.8C345.2 266 344.9 266.1 344.6 266.3C343 267.1 341.4 268 339.8 268.8C326.7 264.4 313.6 260.6 300.9 257.4C288.7 254.3 276.7 251.9 265.1 250C261.2 249.4 257.4 248.8 253.6 248.3C250.9 247.9 248.5 247.7 246.3 247.4C187.3 241 144.8 252.4 129.5 278.8C114.3 305.2 125.7 347.7 160.7 395.6C125.6 347.7 114.2 305.2 129.5 278.8C144.7 252.4 187.3 241 246.3 247.4C248.5 247.6 250.8 247.9 253.6 248.3C257.4 248.8 261.2 249.3 265.1 250C276.7 251.9 288.7 254.4 300.9 257.4C313.6 260.6 326.6 264.4 339.8 268.8C341.4 268 343 267.1 344.6 266.3C344.9 266.1 345.2 266 345.5 265.8C347.7 264.6 350 263.5 352.3 262.3C353 262 353.6 261.6 354.3 261.3C355.9 260.5 357.6 259.7 359.2 258.9C360 258.5 360.8 258.1 361.6 257.8C363.2 257 364.8 256.3 366.3 255.5C367 255.2 367.8 254.8 368.5 254.5C370.5 253.6 372.5 252.6 374.5 251.7C374.8 251.6 375.1 251.4 375.4 251.3C377.7 250.2 379.9 249.2 382.2 248.2C382.9 247.9 383.6 247.6 384.2 247.3C385.3 246.8 386.4 246.3 387.5 245.8C386.4 246.3 385.3 246.8 384.2 247.2C383.5 247.6 382.9 247.9 382.2 248.2Z" fill="#7B5EA7"/>
<path d="M629.4 391.5C629.8 391 630.1 390.5 630.5 390C653.8 358.2 666.6 328.3 666.6 305.7C666.6 297.1 664.8 289.6 661.2 283.4C647.9 260.4 608.6 250.6 553.5 256.6C552.9 256.7 552.3 256.7 551.7 256.8C558.4 282.1 563.7 309.3 567.3 337.5C590 354.9 610.9 373 629.4 391.5Z" fill="#7B5EA7"/>
<path d="M273 424.2C273.3 407.9 274 391.7 275.3 375.8C274 391.7 273.2 407.9 273 424.2Z" fill="#7B5EA7"/>
<path d="M775.8 217.4C775.8 217.4 775.8 217.3 775.7 217.3C753.9 179.5 718.5 151.5 673.2 136.3C645.4 127 613.9 122.4 579.4 122.7C562.5 92.7 542.7 67.7 520.8 48.3C485 16.7 443.1 0 399.4 0C355.8 0 313.8 16.7 278 48.3C256 67.7 236.3 92.7 219.4 122.7C184.9 122.4 153.4 126.9 125.6 136.3C80.4 151.5 44.9 179.5 23.1 217.3C7.8 243.9 0 273.5 0 305.4C0 356.9 21.3 413.2 61.6 468.2C64.1 471.6 66.6 474.9 69.1 478.1C82.4 495.2 102.7 506.4 124.2 508.7C126.3 527.7 133.7 545.6 145.8 560.7C154 571 163.8 579.3 175 585.5V678.7C175 704.9 184.6 729.4 202.9 749.6C222.9 771.8 250.9 784 281.6 784H310.7C339.1 784 365.3 773.4 384.9 754.2C392.8 760.2 401.4 765.3 410.5 769.5C429.1 778 450 782.8 472.7 783.9C474 784 475.3 784 476.6 784H523.8C555.7 783.5 586 772.4 611.6 751.7C634.6 733.1 651.5 709.4 661.8 681.2C670.3 658.1 674.6 636 674.6 615.7C674.6 614.2 674.6 612.6 674.5 611C674.5 610.9 674.5 610.8 674.5 610.7C673.6 596.6 671 583.2 666.7 570.9C670.9 561.1 673.6 550.6 674.8 539.6C675.1 536.8 675.3 533.9 675.3 531V510.4C675.3 509.8 675.3 509.2 675.3 508.6C696.6 506.2 716.7 495 729.8 478.1C732.3 474.8 734.8 471.5 737.3 468.2C778.2 412.4 798.9 357.6 798.9 305.4C798.8 273.6 791.1 244 775.8 217.4ZM729.1 462.3C726.7 465.5 724.3 468.8 721.8 472C709.4 488 690 498.1 669.7 499C668.4 499.1 667.1 499.7 666.2 500.7C665.3 501.7 664.9 503 664.9 504.4L665 505.2V505.3C665 505.3 665 505.3 665 505.4C665.1 507.2 665.2 508.9 665.2 510.5V531.1C665.2 533.6 665.1 536.2 664.8 538.6C663.7 549.2 660.9 559.4 656.7 568.7C656.2 569.9 656.1 571.3 656.6 572.5C661 584.4 663.6 597.4 664.5 611.3C664.5 611.4 664.5 611.5 664.5 611.6C664.6 613.1 664.6 614.5 664.6 615.9C664.6 635.1 660.5 655.9 652.4 678C642.7 704.4 626.9 726.7 605.3 744.1C581.5 763.3 553.3 773.7 523.8 774.2H476.7C475.6 774.2 474.4 774.2 473.3 774.1C451.9 773.1 432.2 768.5 414.7 760.5C405 756.1 395.8 750.4 387.6 743.7C386.7 742.9 385.6 742.6 384.4 742.6C383.1 742.6 381.7 743.1 380.7 744.2C362.7 763.5 337.7 774.1 310.6 774.1H281.5C253.7 774.1 228.4 763 210.2 743C193.7 724.7 184.9 702.5 184.9 678.8V582.6C184.9 580.7 183.8 579 182.2 578.1C171.1 572.4 161.4 564.5 153.5 554.5C141.8 539.9 135 522.3 133.7 503.7C133.5 501.2 131.5 499.2 129 499.1C108.8 498.1 89.3 488 76.9 472C74.5 468.9 72 465.6 69.6 462.4C30.7 409 10.1 354.7 10.1 305.4C10.1 275.3 17.4 247.3 31.9 222.3C52.5 186.7 86 160.2 128.9 145.8C156.4 136.6 187.8 132.2 222.3 132.8C224.1 132.8 225.9 131.8 226.8 130.2C243.5 100 263 75 284.8 55.8C318.7 25.9 358.4 10.1 399.5 10.1C440.6 10.1 480.3 25.9 514.2 55.8C536 75 555.5 100 572.2 130.2C573.1 131.8 574.8 132.8 576.7 132.8C611.2 132.2 642.6 136.6 670.1 145.8C712.9 160.2 746.5 186.6 767 222.2C767 222.2 767 222.3 767.1 222.3C781.6 247.3 788.9 275.3 788.9 305.4C788.8 355.4 768.7 408.2 729.1 462.3Z" fill="#231F20"/>
<path d="M702.3 259.7C690.6 239.4 671.1 224.8 645 216.3C618.9 207.8 586.3 205.4 548.4 209.6C544.8 210 541.1 210.5 537.2 211V211.1C537.8 212.8 538.4 214.4 539 216.1C539.2 216.6 539.4 217.2 539.6 217.7C540 218.9 540.5 220.1 540.9 221.3C541.1 221.9 541.3 222.5 541.5 223.1C541.9 224.3 542.3 225.6 542.8 226.9C543 227.4 543.1 227.9 543.3 228.5C543.9 230.3 544.5 232 545 233.8C545.1 234 545.1 234.2 545.2 234.3C545.7 235.9 546.2 237.5 546.7 239.1C546.9 239.7 547 240.3 547.2 240.9C547.6 242.1 548 243.4 548.3 244.7C548.5 245.3 548.7 246 548.8 246.6C548.8 246.7 548.8 246.7 548.9 246.8L550.3 247.8C551 247.7 551.8 247.6 552.5 247.6C611.5 241.2 654 252.6 669.3 278.9C673.7 286.6 676 295.6 676 305.9C676 330.8 662.9 361.9 638.1 395.7C637.7 396.3 637.2 396.9 636.8 397.5L636.9 399.2L637 399.3C637.5 399.8 637.9 400.2 638.4 400.7C639.3 401.7 640.2 402.6 641.1 403.6C641.5 404 641.9 404.5 642.3 404.9C643.5 406.1 644.6 407.4 645.8 408.6C645.9 408.7 646 408.9 646.2 409C647.5 410.4 648.7 411.8 650 413.1C650.4 413.5 650.7 413.9 651.1 414.3C652 415.3 652.9 416.3 653.7 417.3C654.1 417.8 654.5 418.3 655 418.8C655.8 419.8 656.7 420.7 657.5 421.7C657.9 422.1 658.3 422.6 658.6 423C658.9 423.4 659.3 423.8 659.6 424.2C659.7 424.3 659.8 424.5 660 424.6C660.1 424.7 660.2 424.9 660.4 425C660.9 425.6 661.4 426.1 661.9 426.8C661.9 426.9 662 426.9 662 427C662 427 662.1 427.1 662.1 427.2C662.4 426.8 662.8 426.3 663.1 425.9C665.1 423.3 667.1 420.7 668.9 418.2C713.8 356.6 725.7 300.4 702.3 259.7Z" fill="#F9F4DA"/>
<path d="M271.4 378.6C271 378.9 270.7 379.1 270.3 379.4C268.3 380.9 266.4 382.4 264.4 383.9C263.9 384.3 263.4 384.7 262.8 385.1C261.4 386.2 260 387.3 258.6 388.4C257.9 388.9 257.3 389.4 256.6 390C255.3 391 254 392 252.8 393.1C252.1 393.6 251.5 394.1 250.8 394.7C249.4 395.8 248 397 246.7 398.1C246.2 398.5 245.7 398.9 245.2 399.3C243.4 400.8 241.5 402.4 239.7 403.9C239.3 404.2 238.9 404.6 238.6 404.9C237.5 405.9 236.4 406.9 235.2 407.8C235 413.3 234.9 418.8 234.8 424.2H272.9C273.1 407.9 273.9 391.7 275.2 375.8C273.9 376.7 272.6 377.7 271.4 378.6Z" fill="#F9F4DA"/>
<path d="M244.9 327.7C245.5 327.3 246.1 326.8 246.7 326.4C248.7 324.9 250.7 323.5 252.8 322C253.1 321.8 253.3 321.6 253.6 321.4C255.4 320.1 257.2 318.9 259 317.6C259.7 317.1 260.4 316.7 261 316.2C262.4 315.2 263.9 314.2 265.3 313.3C266 312.8 266.8 312.3 267.5 311.8C269 310.8 270.5 309.8 272 308.8C272.6 308.4 273.2 308 273.9 307.6C276 306.2 278.1 304.8 280.3 303.4C280.6 303.2 280.9 303 281.2 302.8C282.7 301.8 284.3 300.8 285.8 299.9C288.2 288 291 276.4 294 265.2C293.1 265 292.3 264.8 291.5 264.6C290.3 264.3 289 264 287.8 263.7C287.2 263.6 286.5 263.4 285.9 263.3C284.7 263 283.4 262.8 282.2 262.5C281.6 262.4 281 262.3 280.4 262.1C278.8 261.8 277.2 261.4 275.6 261.1C275.4 261.1 275.2 261 275 261C273.2 260.7 271.5 260.3 269.7 260C269.2 259.9 268.6 259.8 268.1 259.7C266.9 259.5 265.6 259.3 264.4 259.1C263.8 259 263.2 258.9 262.5 258.8C261.3 258.6 260.2 258.4 259 258.3C258.1 258.2 257.2 258 256.3 257.9C250.2 280.5 245.4 304.6 241.8 329.6C243 329.1 244 328.4 244.9 327.7Z" fill="#F9F4DA"/>
<path d="M452.7 280.9C450.5 281.7 448.2 282.5 446 283.3C445.4 283.5 444.8 283.7 444.2 284C442.5 284.6 440.9 285.2 439.2 285.9C438.4 286.2 437.6 286.5 436.8 286.8C435.3 287.4 433.8 288 432.3 288.6C431.5 288.9 430.7 289.2 429.9 289.5C428.3 290.2 426.6 290.8 424.9 291.5C424.3 291.7 423.7 292 423 292.3C420.7 293.2 418.5 294.2 416.2 295.2C415.8 295.4 415.3 295.6 414.9 295.8C413.4 296.4 411.9 297.1 410.5 297.7C428 306 445.5 315.2 462.6 325.1C482.7 336.7 502.3 349.3 520.7 362.4C532.3 370.6 543.5 379.2 554.2 387.9C560 392.6 565.7 397.4 571.2 402.2C579.5 409.5 587.4 416.9 594.9 424.3H647.1C645.8 422.8 644.4 421.3 643.1 419.8C640.4 416.8 637.7 413.9 635 410.9C632.2 407.9 629.4 405 626.5 402.1C606.9 382.2 584.5 362.6 560 344.1C543.1 331.2 525 318.8 506.3 307.1C498.1 301.9 489.8 296.9 481.6 292.2C474 287.8 466.1 283.5 458.1 279.2C456.7 279.7 455.3 280.2 453.9 280.6C453.7 280.5 453.2 280.7 452.7 280.9Z" fill="#F9F4DA"/>
<path d="M180.1 419.6C174.8 413.5 169.9 407.5 165.3 401.4C164.7 400.6 164.1 399.9 163.6 399.1C162.9 398.1 162.2 397.2 161.6 396.4C161.4 396.1 161.2 395.8 161 395.5C125.9 347.6 114.6 305.1 129.8 278.7C145 252.3 187.6 240.9 246.6 247.3C248.8 247.5 251.2 247.8 253.9 248.2C257.7 248.7 261.5 249.2 265.4 249.9C277 251.8 289 254.3 301.2 257.3C313.9 260.5 326.9 264.3 340.1 268.7C341.7 267.8 343.3 267 344.9 266.2C345.2 266 345.5 265.9 345.8 265.7C348.1 264.5 350.3 263.4 352.6 262.2C353.3 261.9 353.9 261.5 354.6 261.2C356.2 260.4 357.9 259.6 359.5 258.8C360.3 258.4 361.1 258 361.9 257.7C363.5 256.9 365 256.2 366.6 255.4C367.3 255.1 368.1 254.7 368.8 254.4C370.8 253.5 372.8 252.5 374.8 251.6C375.1 251.5 375.4 251.3 375.7 251.2C378 250.2 380.2 249.1 382.5 248.1C383.2 247.8 383.8 247.5 384.5 247.2C385.6 246.7 386.7 246.2 387.8 245.8C362.9 235.8 338.3 227.6 314.5 221.5C306.5 219.4 298.6 217.6 290.8 216C283 214.4 275.3 213 267.8 211.8C261.9 210.9 256.2 210.1 250.9 209.6C175.1 201.3 120.4 219.1 97 259.8C89.2 273.3 85.2 288.7 85.2 305.5C85.2 323.2 89.6 342.5 98.2 362.7C104.6 377.7 113.2 393.3 124.1 409.2C126.1 412.2 128.3 415.2 130.5 418.2C131.9 420.2 133.5 422.2 135 424.2H184.4C182.8 422.6 181.4 421.1 180.1 419.6Z" fill="#F9F4DA"/>
<path d="M563.6 407.6C551.5 397.1 538.6 386.7 525 376.7C524.6 376.4 524.1 376.1 523.7 375.7C525 391.6 525.7 407.8 525.9 424.1H564C564 418.7 563.9 413.2 563.6 407.6C563.6 407.7 563.7 407.7 563.6 407.6Z" fill="#F9F4DA"/>
<path d="M493.3 258.6C493.3 258.5 493.3 258.4 493.2 258.3C493 257.8 492.9 257.2 492.7 256.7C492.6 256.5 492.6 256.3 492.5 256.1C492.1 254.9 491.8 253.7 491.4 252.5C491.2 251.9 491 251.2 490.8 250.6C490.4 249.4 490 248.2 489.6 247C489.4 246.4 489.2 245.9 489 245.3C488.5 243.8 488 242.2 487.4 240.7C487.3 240.5 487.3 240.3 487.2 240.1C486.6 238.4 486 236.7 485.4 235C485.2 234.5 485 234 484.9 233.5C484.5 232.3 484 231.1 483.6 230C483.4 229.4 483.1 228.8 482.9 228.2C482.5 227.1 482.1 226 481.6 224.9C481.5 224.7 481.4 224.4 481.3 224.2C481.1 223.7 480.9 223.2 480.7 222.7C480.7 222.6 480.6 222.5 480.6 222.4C454.7 229.3 428 238.6 401.1 249.9C398.6 250.9 396.2 252 393.7 253C376.5 260.5 359.2 268.8 342.2 277.8C333.6 282.4 325.1 287 317 291.8C308.8 296.5 300.5 301.5 292.3 306.7C290 308.2 287.7 309.6 285.3 311.1C269.1 321.5 253.4 332.5 238.6 343.7C215.3 361.4 193.9 379.9 175 398.8C181.5 407.2 188.8 415.6 196.5 424H203.7C211.2 416.6 219.2 409.2 227.4 401.9C243 388.2 260 374.8 277.9 362.1C296.3 349 315.9 336.4 336 324.8C356.1 313.2 376.8 302.5 397.4 293.1C417.4 284 437.5 276 457.1 269.3C469.4 265.3 481.5 261.7 493.3 258.6Z" fill="#F9F4DA"/>
<path d="M313.9 208.5C337.8 154.2 369 123 399.4 123C429.8 123 461 154.1 484.9 208.5C485.8 210.5 486.7 212.7 487.8 215.2C493.6 229.2 498.9 244.5 503.5 260.6C507.1 273.2 510.3 286.4 513 300C528.1 309.5 542.7 319.5 556.7 329.8C552.9 303.3 547.7 277.9 541.1 254.2C540 250.2 538.9 246.3 537.7 242.4C535.9 236.6 534.1 230.9 532.2 225.3C530.3 219.7 528.3 214.2 526.2 208.9C524 203.3 521.8 198 519.7 193.1C489 123.3 446.2 84.9 399.3 84.9C383.2 84.9 367.5 89.4 352.7 98.2C351.4 99 350.2 99.7 348.9 100.6C348.8 100.6 348.8 100.7 348.7 100.7C322 118.1 298.1 149.5 278.9 193.1C277.4 196.4 276 199.9 274.5 203.5C286.8 205.6 299.6 208.2 312.5 211.5C313.1 210.4 313.5 209.4 313.9 208.5Z" fill="#F9F4DA"/>
<path d="M547.4 200.3C543.1 200.8 538.5 201.4 533.7 202.1C531.9 197.7 530.2 193.4 528.4 189.4C496.1 116 450.3 75.6 399.5 75.6C348.7 75.6 302.9 116 270.6 189.4C268.8 193.4 267.1 197.6 265.3 202.1C260.6 201.4 256 200.8 251.7 200.3C172 191.6 114.1 211.1 88.7 255.1C80.1 270 75.7 287 75.7 305.4C75.7 340.7 92 381.6 122.7 423.6C124.7 426.3 126.7 429 128.9 431.8C129.8 432.9 131.1 433.6 132.5 433.6H205.7C206.9 433.6 208.1 433.1 208.9 432.3C211.6 429.6 214.4 426.9 217.2 424.2C220 421.5 222.8 418.9 225.7 416.3C225.6 419 225.6 421.6 225.6 424.2C225.6 425.8 225.6 427.4 225.6 429C225.6 431.6 227.7 433.6 230.2 433.6H277.6C280.1 433.6 282.2 431.6 282.2 429C282.2 427.4 282.2 425.8 282.3 424.1C282.6 405.4 283.5 386.7 285.2 368.5C302.9 356 321.6 344 340.8 332.9C360 321.8 379.8 311.6 399.4 302.5C419.1 311.6 438.8 321.8 458 332.9C477.3 344 496 356 513.6 368.5C515.3 386.7 516.2 405.3 516.5 424.1C516.5 425.7 516.5 427.3 516.6 428.9C516.6 431.4 518.7 433.5 521.2 433.5H568.7C571.2 433.5 573.3 431.4 573.3 428.9C573.3 427.3 573.3 425.7 573.3 424.1C573.3 421.5 573.2 418.8 573.1 416.2C576 418.8 578.8 421.5 581.6 424.1C584.4 426.8 587.2 429.5 589.9 432.2C590.8 433.1 591.9 433.6 593.1 433.6H666.3C667.7 433.6 669.1 432.9 669.9 431.8C672.1 429 674.2 426.2 676.1 423.6C707.3 381.1 723.1 340.6 723.1 305.4C723.1 287.1 718.8 270.2 710.1 255.1C684.9 211.1 627.1 191.6 547.4 200.3ZM279.1 193.1C298.3 149.5 322.2 118.1 348.9 100.7C349 100.7 349 100.6 349.1 100.6C350.4 99.8 351.6 99 352.9 98.2C367.7 89.4 383.4 84.9 399.5 84.9C446.4 84.9 489.2 123.3 519.9 193.1C522.1 198 524.2 203.3 526.4 208.9C528.5 214.2 530.5 219.7 532.4 225.3C534.3 230.9 536.2 236.6 537.9 242.4C539.1 246.3 540.2 250.2 541.3 254.2C547.9 277.9 553.1 303.3 556.9 329.9C542.9 319.6 528.2 309.6 513.2 300.1C510.4 286.5 507.2 273.3 503.7 260.7C499.1 244.6 493.8 229.3 488 215.3C487 212.8 486 210.6 485.1 208.6C461.2 154.3 430 123.1 399.6 123.1C369.2 123.1 338 154.3 314.1 208.5C313.7 209.5 313.2 210.5 312.8 211.5C299.9 208.3 287.2 205.6 274.8 203.5C276.1 199.9 277.6 196.4 279.1 193.1ZM551.7 256.9C552.3 256.8 552.9 256.8 553.5 256.7C608.7 250.7 647.9 260.4 661.2 283.5C664.8 289.7 666.6 297.2 666.6 305.8C666.6 328.4 653.8 358.4 630.5 390.1C630.2 390.6 629.8 391.1 629.4 391.6C610.8 373.1 589.9 355 567.3 337.7C563.7 309.3 558.4 282.2 551.7 256.9ZM502.2 293.2C496.9 290 491.7 286.8 486.4 283.8C481.2 280.8 475.8 277.8 470.4 274.8C479 272.1 487.5 269.6 495.8 267.4C498.2 275.9 500.3 284.5 502.2 293.2ZM477.2 213.9C451.9 220.7 425.8 229.8 399.4 240.7C373.1 229.7 347 220.7 321.6 213.9C321.8 213.3 322.1 212.8 322.3 212.2C344.7 161.4 372.7 132.3 399.3 132.3C425.9 132.3 454 161.4 476.3 212.2C476.7 212.7 477 213.3 477.2 213.9ZM134.7 424.2C134.7 424.1 134.7 424.1 134.7 424.2C133.1 422.1 131.6 420.1 130.1 418.1C127.9 415.1 125.8 412.1 123.7 409.1C112.8 393.3 104.2 377.7 97.8 362.6C89.2 342.3 84.8 323 84.8 305.4C84.8 288.6 88.8 273.2 96.6 259.7C120.1 219.1 174.7 201.2 250.5 209.5C255.8 210.1 261.5 210.8 267.4 211.7C274.9 212.9 282.6 214.2 290.4 215.9C298.2 217.6 306.1 219.4 314.1 221.4C337.9 227.6 362.5 235.8 387.4 245.7C386.3 246.2 385.2 246.7 384.1 247.2C383.4 247.5 382.8 247.8 382.1 248.1C379.8 249.1 377.6 250.1 375.3 251.2C375 251.3 374.7 251.5 374.4 251.6C372.4 252.5 370.4 253.5 368.4 254.4C367.7 254.8 366.9 255.1 366.2 255.4C364.6 256.2 363 256.9 361.5 257.7C360.7 258.1 359.9 258.5 359.1 258.8C357.5 259.6 355.8 260.4 354.2 261.2C353.5 261.5 352.9 261.9 352.2 262.2C349.9 263.3 347.7 264.5 345.4 265.7C345.1 265.9 344.8 266 344.5 266.2C342.9 267 341.3 267.9 339.7 268.7C326.6 264.3 313.5 260.5 300.8 257.3C288.6 254.2 276.6 251.8 265 249.9C261.1 249.3 257.3 248.7 253.5 248.2C250.8 247.9 248.4 247.6 246.2 247.3C187.2 240.9 144.7 252.3 129.4 278.7C114.2 305.1 125.6 347.6 160.6 395.5C160.8 395.8 161 396.1 161.2 396.4C161.8 397.3 162.5 398.2 163.2 399.1C163.8 399.8 164.3 400.6 164.9 401.4C169.5 407.4 174.5 413.5 179.7 419.6C181 421.1 182.3 422.6 183.7 424.1H134.7V424.2ZM328.5 274.9C323.1 277.9 317.7 280.9 312.5 283.9C307.3 286.9 302 290.1 296.7 293.3C298.6 284.5 300.7 275.9 303 267.6C311.4 269.7 319.9 272.2 328.5 274.9ZM231.6 337.6C208.9 354.9 188.1 373 169.5 391.5C169.1 391 168.8 390.5 168.4 390C135.6 345.2 124.4 306.4 137.7 283.3C151 260.3 190.2 250.5 245.4 256.5C246 256.6 246.6 256.6 247.2 256.7C240.5 282.2 235.2 309.4 231.6 337.6ZM256.5 258.1C257.4 258.2 258.3 258.3 259.2 258.5C260.3 258.7 261.5 258.8 262.7 259C263.3 259.1 263.9 259.2 264.6 259.3C265.8 259.5 267.1 259.7 268.3 259.9C268.8 260 269.3 260.1 269.9 260.2C271.7 260.5 273.4 260.8 275.2 261.2C275.4 261.2 275.6 261.3 275.8 261.3C277.4 261.6 279 261.9 280.6 262.3C281.2 262.4 281.8 262.5 282.4 262.7C283.6 263 284.9 263.2 286.1 263.5C286.7 263.6 287.4 263.8 288 263.9C289.2 264.2 290.5 264.5 291.7 264.8C292.5 265 293.4 265.2 294.2 265.4C291.1 276.6 288.4 288.2 286 300.1C284.5 301.1 282.9 302.1 281.4 303C281.1 303.2 280.8 303.4 280.5 303.6C278.4 305 276.2 306.4 274.1 307.7C273.5 308.1 272.9 308.5 272.2 308.9C270.7 309.9 269.2 310.9 267.7 311.9C267 312.4 266.2 312.9 265.5 313.4C264.1 314.4 262.6 315.4 261.2 316.3C260.5 316.8 259.8 317.2 259.2 317.7C257.4 318.9 255.6 320.2 253.8 321.5C253.5 321.7 253.3 321.9 253 322.1C251 323.6 248.9 325 246.9 326.5C246.3 326.9 245.7 327.4 245.1 327.8C244.1 328.5 243.2 329.2 242.2 329.9C245.6 304.8 250.5 280.7 256.5 258.1ZM273 424.1H234.9C235 418.7 235.1 413.2 235.3 407.7C236.4 406.7 237.5 405.7 238.7 404.8C239.1 404.5 239.5 404.2 239.8 403.8C241.6 402.3 243.4 400.7 245.3 399.2C245.8 398.8 246.3 398.4 246.8 398C248.2 396.9 249.6 395.7 250.9 394.6C251.6 394.1 252.2 393.6 252.9 393C254.2 392 255.4 391 256.7 389.9C257.4 389.4 258 388.9 258.7 388.3C260.1 387.2 261.5 386.1 262.9 385C263.4 384.6 263.9 384.2 264.5 383.8C266.4 382.3 268.4 380.8 270.4 379.3C270.8 379 271.1 378.8 271.5 378.5C272.8 377.5 274.1 376.6 275.4 375.6C274 391.7 273.2 407.9 273 424.1ZM397.5 293.2C376.9 302.6 356.3 313.3 336.1 324.9C316 336.5 296.4 349.1 278 362.2C260.1 375 243.1 388.3 227.5 402C219.2 409.3 211.3 416.7 203.8 424.1H196.6C188.8 415.7 181.6 407.3 175.1 398.9C194 380 215.4 361.4 238.7 343.8C253.5 332.6 269.2 321.6 285.4 311.2C287.7 309.7 290 308.2 292.4 306.8C300.6 301.6 309 296.6 317.1 291.9C325.2 287.2 333.7 282.5 342.3 277.9C359.3 268.9 376.6 260.6 393.8 253.1C396.3 252 398.7 251 401.2 249.9C428.2 238.6 454.9 229.3 480.7 222.4C480.7 222.5 480.8 222.6 480.8 222.8C481 223.3 481.2 223.8 481.4 224.3C481.5 224.5 481.6 224.8 481.7 225C482.1 226.1 482.5 227.2 483 228.3C483.2 228.9 483.5 229.5 483.7 230.1C484.1 231.3 484.6 232.4 485 233.6C485.2 234.1 485.4 234.6 485.5 235.1C486.1 236.8 486.7 238.5 487.3 240.2C487.4 240.4 487.4 240.6 487.5 240.8C488 242.3 488.5 243.9 489.1 245.4C489.3 246 489.5 246.5 489.7 247.1C490.1 248.3 490.5 249.5 490.9 250.7C491.1 251.3 491.3 252 491.5 252.6C491.9 253.8 492.2 255 492.6 256.2C492.7 256.4 492.7 256.6 492.8 256.8C493 257.3 493.1 257.9 493.3 258.4C493.3 258.5 493.4 258.6 493.4 258.7C481.6 261.8 469.5 265.4 457.3 269.5C437.6 276.1 417.5 284.1 397.5 293.2ZM525.9 424.2C525.7 407.9 524.9 391.7 523.7 375.8C524.1 376.1 524.6 376.4 525 376.8C538.6 386.8 551.5 397.2 563.6 407.7C563.6 407.7 563.7 407.7 563.7 407.8C563.9 413.3 564 418.8 564.1 424.3H525.9V424.2ZM595 424.2C587.5 416.8 579.5 409.3 571.3 402.1C565.8 397.3 560.1 392.5 554.3 387.8C543.6 379.1 532.4 370.6 520.8 362.3C502.4 349.2 482.8 336.6 462.7 325C445.6 315.1 428.1 305.9 410.6 297.6C412.1 297 413.6 296.3 415 295.7C415.4 295.5 415.9 295.3 416.3 295.1C418.6 294.1 420.8 293.2 423.1 292.2C423.7 291.9 424.3 291.7 424.9 291.4C426.6 290.7 428.2 290.1 429.9 289.4C430.7 289.1 431.5 288.8 432.3 288.5C433.8 287.9 435.3 287.3 436.8 286.7C437.6 286.4 438.4 286.1 439.2 285.8C440.9 285.2 442.5 284.5 444.2 283.9C444.8 283.7 445.4 283.4 446 283.2C448.2 282.4 450.5 281.6 452.7 280.8C453.2 280.6 453.6 280.5 454.1 280.3C455.5 279.8 456.9 279.3 458.3 278.8C466.3 283.1 474.2 287.4 481.8 291.8C490 296.5 498.3 301.5 506.5 306.7C525.2 318.4 543.2 330.9 560.2 343.7C584.7 362.3 607 381.8 626.7 401.7C629.6 404.6 632.4 407.6 635.2 410.5C638 413.5 640.7 416.4 643.3 419.4C644.6 420.9 646 422.4 647.3 423.9H595V424.2ZM668.8 418.1C667 420.6 665 423.1 663 425.8C662.7 426.2 662.3 426.7 662 427.1C662 427 661.9 427 661.9 426.9C661.9 426.8 661.8 426.8 661.8 426.7C661.4 426.1 660.8 425.5 660.3 424.9C660.2 424.8 660.1 424.6 659.9 424.5C659.4 424 659 423.4 658.5 422.9C658.1 422.5 657.7 422 657.4 421.6C656.6 420.6 655.7 419.7 654.9 418.7C654.5 418.2 654.1 417.7 653.6 417.2C652.7 416.2 651.9 415.2 651 414.2C650.6 413.8 650.3 413.4 649.9 413C648.7 411.6 647.4 410.2 646.1 408.8C646 408.7 645.9 408.5 645.7 408.4C644.6 407.2 643.4 405.9 642.2 404.7C641.8 404.3 641.4 403.8 641 403.4C640.1 402.4 639.2 401.5 638.3 400.5C637.8 400 637.3 399.5 636.8 399L636.7 397.3C637.2 396.7 637.6 396.1 638 395.6C662.8 361.8 675.9 330.7 675.9 305.8C675.9 295.6 673.7 286.5 669.2 278.8C654 252.4 611.4 241 552.4 247.5C551.7 247.6 551 247.7 550.2 247.7L548.8 246.7C548.6 246 548.4 245.3 548.2 244.6C547.8 243.3 547.5 242.1 547.1 240.8C546.9 240.2 546.8 239.6 546.6 239C546.1 237.4 545.6 235.8 545.1 234.2C545 234 545 233.8 544.9 233.7C544.3 231.9 543.8 230.2 543.2 228.4C543 227.9 542.9 227.4 542.7 226.8C542.3 225.5 541.9 224.3 541.4 223C541.2 222.4 541 221.8 540.8 221.2C540.4 220 540 218.8 539.5 217.6C539.3 217.1 539.1 216.5 538.9 216C538.3 214.3 537.7 212.7 537.1 211V210.9C541 210.4 544.7 209.9 548.3 209.5C586.2 205.4 618.8 207.8 644.9 216.3C671 224.8 690.5 239.4 702.2 259.7C725.7 300.4 713.8 356.6 668.8 418.1Z" fill="#231F20"/>
<path d="M371 457.9H221.4C217.8 458.2 215.1 459.7 212.9 462.5C210.5 465.5 209.3 468.9 209.3 472.9V497.1C209.3 501 210.5 504.4 212.9 507.4C215.1 510.2 217.9 511.7 221.5 512H255.6C258.4 512 260.6 514.2 260.6 517V678.6C260.6 683.4 262.5 687.9 266.4 692.2C270.2 696.4 275.2 698.4 281.6 698.4H310.6C311.3 698.4 312.1 698.4 312.8 698.3C312.9 698.3 312.9 698.3 313 698.3C313.6 698.3 314.1 698.2 314.6 698.1C314.8 698.1 315 698.1 315.2 698C315.5 698 315.7 697.9 316 697.8C318.5 697.2 320.8 696.3 322.8 694.9C323.9 694.1 324.9 693.2 325.9 692.2C329.8 687.9 331.7 683.4 331.7 678.6V517.1C331.7 514.3 333.9 512.1 336.7 512.1H371C374.6 511.8 377.3 510.3 379.6 507.5C382 504.4 383.2 501.1 383.2 497.1V472.9C383.2 469 382 465.6 379.6 462.5C377.4 459.7 374.6 458.2 371 457.9Z" fill="#F3EED4"/>
<path d="M371.7 447.9C371.5 447.9 371.4 447.9 371.3 447.9H221.1C221 447.9 220.8 447.9 220.7 447.9C214.2 448.4 208.9 451.2 204.9 456.3C201.1 461.1 199.1 466.7 199.1 472.9V497.1C199.1 503.3 201 508.9 204.9 513.7C208.9 518.7 214.2 521.6 220.7 522.1C220.8 522.1 221 522.1 221.1 522.1H250.6V678.7C250.6 686 253.4 692.8 259 699C264.7 705.3 272.3 708.5 281.6 708.5H310.7C320 708.5 327.6 705.3 333.3 699C338.9 692.8 341.7 686 341.7 678.7V522.1H371.2C371.3 522.1 371.5 522.1 371.6 522.1C378.1 521.6 383.4 518.8 387.4 513.7C391.2 508.9 393.2 503.3 393.2 497.1V472.9C393.2 466.7 391.3 461.1 387.4 456.3C383.4 451.3 378.1 448.4 371.7 447.9ZM383.2 497.1C383.2 501 382 504.4 379.6 507.5C377.4 510.3 374.6 511.8 371 512.1H336.7C333.9 512.1 331.7 514.3 331.7 517.1V678.7C331.7 683.5 329.8 688 325.9 692.3C325 693.3 323.9 694.3 322.8 695C320.8 696.4 318.6 697.4 316 697.9C315.7 698 315.5 698 315.2 698.1C315 698.1 314.8 698.1 314.6 698.2C314.1 698.3 313.5 698.4 313 698.4C312.9 698.4 312.9 698.4 312.8 698.4C312.1 698.5 311.4 698.5 310.6 698.5H281.6C275.1 698.5 270.2 696.5 266.4 692.3C262.5 688 260.6 683.5 260.6 678.7V517.1C260.6 514.3 258.4 512.1 255.6 512.1L221.3 512.1C217.7 511.8 215 510.3 212.7 507.5C210.3 504.5 209.1 501.1 209.1 497.2V473C209.1 469.1 210.3 465.7 212.7 462.6C214.9 459.8 217.7 458.3 221.3 458H371C374.6 458.3 377.3 459.8 379.6 462.6C382 465.7 383.2 469.1 383.2 473V497.1Z" fill="#231F20"/>
<path d="M577.6 544.1C582.6 543.7 588.5 541.7 589.8 530.7V510.6C588.8 497.9 586 487.9 581.4 480.9C579.1 477.4 576.3 474.4 573.1 471.6C569.8 468.9 566.1 466.6 561.9 464.7C553.3 460.8 542.8 458.5 530.9 457.9H485.6C472.6 458.1 461 462.4 450.2 471.2C439.4 480 431.4 491.2 426.5 504.6C421.5 518.2 419.1 530.3 419.2 540.5C419.9 555.1 424.4 566.2 432.4 573.3C435 575.6 438.2 577.9 441.9 580C450 584.7 460.5 588.8 473.4 592.3C496.3 598.6 504.4 602.2 507.9 604.7C508.6 605.2 509.1 605.6 509.5 606C513.5 609.8 515.6 614.5 515.9 619.8C515.9 619.9 515.9 620.1 515.9 620.2C515.7 629 513.9 635.6 510.5 640.5C510.3 640.8 510.1 641.1 509.8 641.3C506 644.9 501.4 645.5 497.2 643.4C496.9 643.3 496.6 643.1 496.3 642.9C496.3 642.9 496.2 642.9 496.2 642.8C495.5 642.4 494.9 641.9 494.3 641.4L494.2 641.3C490.4 637.8 488.4 632.5 488.4 625.8C487.6 618.9 485 615.6 482 613.9C480.2 612.9 478.2 612.5 476.3 612.4H430.7C425.7 612.8 419.8 614.8 418.5 625.8V645.9C419.5 658.6 422.3 668.6 426.9 675.6C430.3 680.8 434.9 685.2 440.5 688.6C442.4 689.8 444.3 690.8 446.4 691.8C455 695.7 465.4 698 477.1 698.6H523C535.8 698.4 547.3 694.1 558.1 685.3C568.9 676.5 576.9 665.3 581.8 651.9C586.8 638.3 589.3 626.2 589.4 615.9C588.5 601.3 583.9 590.3 575.9 583.2C574.3 581.8 572.6 580.4 570.6 579.1C562.1 573.3 550.2 568.3 535 564.2C511.2 557.7 503.4 554 500.1 551.5C499.6 551.1 499.2 550.8 498.9 550.5C494.9 546.7 492.8 542 492.5 536.7C492.5 536.6 492.5 536.5 492.5 536.3C492.7 527.7 494.2 521.1 497.1 516.3C497.3 515.9 497.6 515.5 498 515.2C502.3 511.2 507.6 510.9 512.4 514.1C512.7 514.3 513.1 514.6 513.4 514.8C518.5 518.1 519.1 525.4 519.2 530.8C519.7 536.2 521.3 539.8 524.3 542C526.1 543.3 528.4 544 531.3 544.2H577.6V544.1Z" fill="#F3EED4"/>
<path d="M599.8 510C598.7 495.5 595.3 483.8 589.8 475.4C584.1 466.9 576.2 460.2 566.1 455.6C556.3 451.1 544.6 448.5 531.3 447.9C531.2 447.9 531.1 447.9 531.1 447.9H485.6C470.4 448.1 456.4 453.3 443.9 463.4C431.6 473.3 422.6 486 417.1 501.1C411.7 515.9 409 529.3 409.2 540.7C409.2 540.7 409.2 540.8 409.2 540.9C410.1 558.4 415.6 571.7 425.7 580.7C435.5 589.4 450.2 596.3 470.7 601.9C471.1 602 471.5 602.1 471.9 602.2H430.3C430.2 602.2 430 602.2 429.9 602.2C417.5 603.2 409.8 611.2 408.4 624.8C408.4 625 408.4 625.1 408.4 625.3V645.9C408.4 646 408.4 646.1 408.4 646.3C409.5 660.8 412.9 672.5 418.4 680.9C424 689.4 432 696.1 442.1 700.7C451.9 705.2 463.5 707.8 476.6 708.4C476.7 708.4 476.8 708.4 476.8 708.4H522.9C537.9 708.2 551.8 703 564.3 692.9C576.6 683 585.6 670.3 591.1 655.2C596.5 640.4 599.3 627.1 599.3 615.7C599.3 615.6 599.3 615.5 599.3 615.4C598.2 598 592.5 584.6 582.5 575.6C572.9 567.1 557.7 559.9 537.5 554.4C537.1 554.3 536.7 554.2 536.3 554.1H577.9C578 554.1 578.2 554.1 578.3 554.1C590.7 553.1 598.4 545.1 599.8 531.5C599.8 531.3 599.8 531.2 599.8 531L599.8 510.4C599.8 510.3 599.8 510.2 599.8 510ZM589.8 530.7C588.5 541.7 582.6 543.7 577.6 544.1H531.1C528.2 543.9 525.9 543.1 524.1 541.9C521.1 539.8 519.5 536.2 519 530.7C519 525.3 518.3 518 513.2 514.7C512.9 514.4 512.6 514.2 512.2 514C507.4 510.8 502.1 511.2 497.8 515.1C497.5 515.4 497.1 515.8 496.9 516.2C494 521 492.5 527.6 492.3 536.2C492.3 536.3 492.3 536.4 492.3 536.6C492.6 541.9 494.7 546.6 498.7 550.4C499 550.7 499.4 551 499.9 551.4C503.2 553.9 511 557.6 534.8 564.1C550 568.3 562 573.3 570.4 579C572.4 580.3 574.1 581.7 575.7 583.1C583.7 590.2 588.2 601.2 589.2 615.8C589.2 626 586.6 638.1 581.6 651.8C576.7 665.2 568.7 676.4 557.9 685.2C547.1 693.9 535.6 698.3 522.8 698.5H476.9C465.1 697.9 454.8 695.6 446.2 691.7C444.1 690.7 442.1 689.7 440.2 688.5C434.6 685 430.1 680.7 426.6 675.5C422 668.5 419.1 658.5 418.2 645.8V625.7C419.5 614.7 425.3 612.7 430.4 612.3H476C477.9 612.5 479.9 612.8 481.7 613.8C484.8 615.5 487.3 618.8 488.1 625.7C488.1 632.4 490.1 637.7 493.9 641.2L494 641.3C494.6 641.8 495.3 642.3 495.9 642.7C495.9 642.7 496 642.7 496 642.8C496.3 643 496.6 643.1 496.9 643.3C501.1 645.5 505.7 644.8 509.5 641.2C509.8 641 510 640.7 510.2 640.4C513.6 635.5 515.4 628.9 515.6 620.1C515.6 620 515.6 619.8 515.6 619.7C515.3 614.4 513.2 609.7 509.2 605.9C508.8 605.5 508.3 605.1 507.6 604.6C504.1 602.1 495.9 598.5 473.1 592.2C460.2 588.7 449.7 584.6 441.6 579.9C437.9 577.8 434.8 575.5 432.1 573.2C424.1 566.1 419.7 555.1 418.9 540.4C418.7 530.2 421.2 518.1 426.2 504.5C431.1 491.1 439.1 479.9 449.9 471.1C460.7 462.4 472.3 458 485.3 457.8H530.6C542.6 458.4 553 460.7 561.6 464.6C565.8 466.5 569.5 468.8 572.8 471.5C576.1 474.2 578.9 477.3 581.2 480.8C585.8 487.8 588.6 497.8 589.6 510.5V530.7H589.8ZM509 531C509 531.2 509 531.3 509 531.4C509.6 538.5 512 544 515.9 547.9C508.2 545.2 506.2 543.8 505.7 543.3C503.6 541.3 502.6 539.1 502.4 536.4C502.6 530.2 503.5 525.4 505.2 522.1C505.7 521.8 506.1 521.9 507.2 522.8C507.4 522.9 507.5 523.1 507.7 523.2C507.9 523.4 509 525 509 531ZM490.4 607.9C499.4 611 501.7 612.6 502.3 613.1C504.4 615.1 505.4 617.3 505.6 620C505.4 626.2 504.3 631 502.3 634.1C502 634.4 501.8 634.4 501.8 634.4C501.8 634.4 501.4 634.3 500.7 633.7C499 632.1 498.1 629.2 498.1 625.3C498.1 625.1 498.1 624.9 498.1 624.8C497.2 617.5 494.6 611.8 490.4 607.9Z" fill="#231F20"/>
</svg>
