<?xml version="1.0" encoding="UTF-8"?><svg id="Layer_1" xmlns="http://www.w3.org/2000/svg" viewBox="0 0 981.41 949.99"><defs><style>.cls-1{fill:#13a68e;}.cls-1,.cls-2{stroke:#231f20;stroke-linecap:round;stroke-linejoin:round;stroke-width:10px;}.cls-2{fill:#f7b528;}</style></defs><g><path class="cls-2" d="M530.48,276c30.56,1.13,60.55,3.56,89.64,7.23-25.63-33.78-52.57-64.63-80.16-91.79-16.51,12.63-32.98,26.93-49.26,42.69,13.42,12.99,26.71,26.98,39.77,41.86Z"/><path class="cls-2" d="M240.53,296.92c-8.54-78.25,5.98-134.33,39.82-153.87,9.6-5.54,20.97-8.27,33.78-8.27,32.35,0,73.91,17.39,119.39,50.71,2.64,1.94,5.29,3.93,7.93,5.95,16.24-15.99,32.7-30.69,49.26-43.96-6.25-5.01-12.51-9.84-18.77-14.43-86.48-63.36-166.06-79.8-224.08-46.3-58.02,33.5-83.57,110.64-71.94,217.21,.84,7.72,1.89,15.56,3.11,23.47,19.77-7.7,40.74-14.61,62.7-20.68-.43-3.3-.83-6.58-1.19-9.84Z"/><path class="cls-2" d="M671.21,357.25c-27.64-5.51-56.62-9.74-86.55-12.59,17.76,24.94,34.78,51.43,50.79,79.16,16.01,27.73,30.44,55.72,43.16,83.57,12.49-27.35,23.32-54.55,32.37-81.25-6.16-11.64-12.56-23.26-19.24-34.82-6.67-11.56-13.53-22.91-20.53-34.07Z"/><path class="cls-2" d="M490.71,674.53c-32.02,0-63.48-1.5-93.95-4.41,17.44,24.49,35.58,47.48,54.18,68.66,13.16,.49,26.42,.75,39.77,.75s26.61-.26,39.77-.75c18.6-21.18,36.74-44.17,54.18-68.66-30.48,2.91-61.93,4.41-93.95,4.41Z"/><path class="cls-2" d="M310.2,657.53c-19.42-3.87-38.18-8.39-56.14-13.51-5.51,21.98-9.66,43.39-12.34,64.01,37.32,10.31,77.5,18.21,119.57,23.52-17.73-23.36-34.83-48.12-51.09-74.02Z"/><path class="cls-2" d="M620.12,731.55c42.07-5.31,82.25-13.21,119.57-23.52-2.69-20.61-6.83-42.03-12.34-64.01-17.96,5.13-36.72,9.64-56.14,13.51-16.26,25.9-33.36,50.66-51.09,74.02Z"/><path class="cls-2" d="M727.35,370.76c-4.54,18.12-10.01,36.62-16.37,55.38-9.05,26.7-19.88,53.9-32.37,81.25-12.72,27.85-27.15,55.84-43.16,83.57s-33.04,54.22-50.79,79.16c-17.44,24.49-35.58,47.48-54.18,68.66-13.07,14.88-26.35,28.87-39.77,41.86-16.28,15.76-32.75,30.06-49.26,42.69-2.64,2.02-5.28,4.01-7.93,5.95-63.49,46.52-119.32,61.99-153.17,42.45-33.85-19.54-48.36-75.62-39.82-153.87,.36-3.26,.76-6.54,1.19-9.84,2.69-20.61,6.83-42.03,12.34-64.01,4.54-18.12,10.01-36.62,16.37-55.38-14.3-27.03-27.19-54.22-38.56-81.25-16.43,39.09-29.69,77.84-39.41,115.31-5.73,22.06-10.22,43.66-13.44,64.64-1.21,7.91-2.26,15.75-3.11,23.47-11.63,106.57,13.92,183.71,71.94,217.21,19.66,11.35,41.79,16.97,65.84,16.97,46.91,0,101.07-21.38,158.25-63.27,6.27-4.59,12.53-9.42,18.77-14.43,16.56-13.27,33.02-27.97,49.26-43.96,27.59-27.16,54.53-58.01,80.16-91.79,17.73-23.36,34.83-48.12,51.09-74.02,7-11.16,13.86-22.51,20.53-34.07,6.67-11.56,13.08-23.17,19.24-34.82,14.3-27.03,27.19-54.22,38.56-81.25,16.43-39.09,29.69-77.84,39.41-115.31-19.2-7.98-39.82-15.1-61.6-21.31Z"/><path class="cls-2" d="M824.27,336.48c-7.11-3.13-14.42-6.14-21.88-9.04-19.77-7.7-40.74-14.61-62.7-20.68-37.32-10.31-77.5-18.21-119.57-23.52-29.09-3.67-59.08-6.1-89.64-7.23-13.16-.49-26.42-.75-39.77-.75s-26.61,.26-39.77,.75c-18.6,21.18-36.74,44.17-54.18,68.66,30.48-2.91,61.93-4.41,93.95-4.41s63.47,1.5,93.95,4.41c29.93,2.85,58.91,7.08,86.55,12.59,19.42,3.87,38.18,8.39,56.14,13.51,21.79,6.22,42.41,13.33,61.6,21.31,3.07,1.28,6.12,2.57,9.12,3.89,72.03,31.73,113.34,72.34,113.34,111.42s-41.31,79.69-113.34,111.42c-3,1.32-6.05,2.61-9.12,3.89,5.73,22.06,10.23,43.66,13.44,64.64,7.46-2.91,14.77-5.91,21.88-9.04,98.11-43.22,152.14-103.91,152.14-170.91s-54.03-127.69-152.14-170.91Z"/><path class="cls-2" d="M805.5,710.81c-.84-7.72-1.89-15.56-3.11-23.47-3.22-20.98-7.72-42.58-13.44-64.64-9.73-37.48-22.98-76.23-39.41-115.31-11.37,27.03-24.26,54.22-38.56,81.25,6.36,18.76,11.83,37.26,16.37,55.38,5.51,21.98,9.66,43.39,12.34,64.01,.43,3.3,.83,6.58,1.19,9.84,8.54,78.25-5.98,134.33-39.82,153.87-33.85,19.54-89.67,4.07-153.17-42.45-2.64-1.94-5.29-3.93-7.93-5.95-16.24,15.99-32.7,30.69-49.26,43.96,6.25,5.01,12.51,9.83,18.77,14.43,57.18,41.89,111.34,63.27,158.25,63.27,24.04,0,46.18-5.62,65.84-16.97,58.02-33.5,83.57-110.64,71.94-217.21Z"/><path class="cls-2" d="M241.72,306.76c-21.96,6.07-42.93,12.98-62.7,20.68-7.46,2.91-14.77,5.91-21.88,9.04C59.03,379.7,5,440.39,5,507.39s54.03,127.69,152.14,170.91c7.11,3.13,14.42,6.14,21.88,9.04,3.22-20.98,7.72-42.58,13.44-64.64-3.07-1.28-6.12-2.57-9.12-3.89-72.03-31.73-113.34-72.34-113.34-111.42s41.31-79.69,113.34-111.42c3-1.32,6.05-2.61,9.12-3.89,19.2-7.98,39.82-15.1,61.6-21.31,17.96-5.13,36.72-9.64,56.14-13.51,16.26-25.9,33.36-50.66,51.09-74.02-42.07,5.31-82.25,13.21-119.57,23.52Z"/></g><g><path class="cls-2" d="M773.53,123.4c-.29,2.14-.63,4.29-1.06,6.44-5,25.32-18.75,46.67-37.48,61.56,8.36,27.11,10.53,63.04,5.9,105.52-.36,3.26-.76,6.54-1.19,9.84,21.96,6.07,42.93,12.98,62.7,20.68,1.21-7.91,2.26-15.75,3.11-23.47,8.47-77.65-2.8-139.67-31.98-180.57Z"/><g><path class="cls-1" d="M690.13,7c-56.66-11.18-111.65,25.68-122.84,82.34-.56,2.82-.99,5.64-1.31,8.46,21.29-10.9,41.91-18.65,61.61-23.19,12.43-15,32.47-22.89,52.92-18.86,14.37,2.84,26.31,11.06,34.15,22.14,8.38,11.85,12.09,26.97,9.06,42.33-2.19,11.09-7.58,20.73-15.02,28.17-12.51,12.49-30.81,18.73-49.45,15.05-13.85-2.73-25.45-10.46-33.29-20.94-14.26,4.87-29.48,12.03-45.42,21.4,8.58,14.1,20.44,26.16,34.79,34.94-.84,1.96-1.51,4.02-1.97,6.19-21.04,100.25-38.44,191.35-59.66,289.34-11.95,55.2-50.66,125.46-117.56,100.56-28.51-10.61-51.86-35.31-54.51-66.43-2.29-26.93,7.75-60.01,30.39-76.43,9.34,7.4,16.76,19.93,24.34,29.56,0,0-11.71-72.66,19.98-127.64,20.04-34.75,17.14-60.45,17.14-60.45-16.25,16.33-50.94,46.31-50.94,46.31-19.18,16.65-38.71,32.67-56.44,50.6-6.87,10.91-13.6,22.03-20.15,33.37-14.44,25.01-27.58,50.23-39.35,75.37-.71,4.26-1.26,8.54-1.66,12.83,12.19,26.32,25.89,52.74,41.01,78.94,16.01,27.73,33.04,54.22,50.79,79.16,.08,.12,.17,.23,.25,.35,54.18,24.58,120.73,20.05,170.35-17.39,8.7-6.56,16.78-13.97,24.06-22.11,34.35-38.36,43.08-91.91,51.6-140.89,10.26-58.98,20.66-117.95,29.73-177.13,4.77-31.13,9.34-62.3,13.14-93.62,.26-2.16,.33-4.3,.22-6.42,18.04-2.84,34.85-10.37,48.87-21.52,18.73-14.89,32.48-36.24,37.48-61.56,.42-2.15,.77-4.3,1.06-6.44,7.29-54.33-28.89-105.64-83.4-116.4Z"/><path class="cls-2" d="M450.93,738.78c-18.51-21.08-36.57-43.95-53.93-68.31-.08-.12-.17-.23-.25-.35-17.76-24.94-34.78-51.43-50.79-79.16-15.12-26.2-28.81-52.62-41.01-78.94-.72-1.54-1.45-3.09-2.15-4.63-12.49-27.35-23.32-54.55-32.37-81.25-6.36-18.76-11.83-37.26-16.37-55.38-21.79,6.22-42.41,13.33-61.6,21.31,9.73,37.48,22.98,76.23,39.41,115.31,11.37,27.03,24.26,54.22,38.56,81.25,6.16,11.64,12.56,23.26,19.24,34.82,6.67,11.56,13.53,22.91,20.53,34.07,16.26,25.9,33.36,50.66,51.09,74.02,25.63,33.78,52.57,64.63,80.16,91.79,16.51-12.63,32.98-26.93,49.26-42.69-13.42-12.99-26.71-26.98-39.77-41.86Z"/></g><path class="cls-2" d="M714.66,77.89c-25.92-9.59-55.29-10.62-87.08-3.29-19.7,4.54-40.31,12.29-61.61,23.19-18.38,9.41-37.27,21.18-56.5,35.26-6.27,4.59-12.53,9.42-18.77,14.43-16.56,13.27-33.02,27.97-49.26,43.96-27.59,27.16-54.53,58.01-80.16,91.79-17.73,23.36-34.83,48.12-51.09,74.02-7,11.16-13.86,22.51-20.53,34.07-6.67,11.56-13.08,23.18-19.24,34.82,9.05,26.7,19.88,53.9,32.37,81.25,1.25-2.73,2.53-5.47,3.81-8.2,11.77-25.14,24.91-50.36,39.35-75.37,6.55-11.34,13.28-22.47,20.15-33.37,9.92-15.76,20.15-31.05,30.65-45.79,17.44-24.49,35.58-47.48,54.18-68.66,13.07-14.88,26.35-28.87,39.77-41.86,16.28-15.76,32.75-30.06,49.26-42.69,2.64-2.02,5.28-4.01,7.93-5.95,11.15-8.16,22.05-15.37,32.65-21.6,15.94-9.37,31.17-16.53,45.42-21.4,14.94-5.11,28.82-7.72,41.32-7.72s24.18,2.73,33.78,8.27c2.67,1.54,5.21,3.34,7.64,5.33,7.44-7.43,12.83-17.07,15.02-28.17,3.03-15.36-.68-30.48-9.06-42.33Z"/></g></svg>